<svg xmlns="http://www.w3.org/2000/svg" width="18" height="18" viewBox="0 0 18 18">
  <path id="_9054381_bx_category_alt_icon" data-name="9054381_bx_category_alt_icon" d="M10,3H4A1,1,0,0,0,3,4v6a1,1,0,0,0,1,1h6a1,1,0,0,0,1-1V4A1,1,0,0,0,10,3ZM9,9H5V5H9Zm11,4H14a1,1,0,0,0-1,1v6a1,1,0,0,0,1,1h6a1,1,0,0,0,1-1V14A1,1,0,0,0,20,13Zm-1,6H15V15h4ZM17,3a4,4,0,1,0,4,4A4,4,0,0,0,17,3Zm0,6a2,2,0,1,1,2-2A2,2,0,0,1,17,9ZM7,13a4,4,0,1,0,4,4A4,4,0,0,0,7,13Zm0,6a2,2,0,1,1,2-2A2,2,0,0,1,7,19Z" transform="translate(-3 -3)" fill="#3c97f2"/>
</svg>
