<svg xmlns="http://www.w3.org/2000/svg" width="27.48" height="23.958" viewBox="0 0 27.48 23.958">
  <g id="Component_15_56" data-name="Component 15 – 56" transform="translate(1 1)">
    <g id="Group_3480" data-name="Group 3480">
      <path id="Path_1149" data-name="Path 1149" d="M6.22,0H7.315a.8.8,0,0,0,.138.042,6.9,6.9,0,0,1,4.953,2.88c.111.151.213.309.315.456.026,0,.037,0,.04-.007.038-.054.077-.107.113-.163a6.868,6.868,0,0,1,3.841-2.9C17.184.167,17.679.1,18.162,0h1.095a1.517,1.517,0,0,0,.189.044,6.288,6.288,0,0,1,4.479,2.478,8.265,8.265,0,0,1,.289,9.209,17.374,17.374,0,0,1-3.345,3.558c-2.651,2.206-5.324,4.384-7.985,6.577a.189.189,0,0,1-.292,0q-3.411-2.8-6.827-5.6a29.2,29.2,0,0,1-3.535-3.276,8.49,8.49,0,0,1-2-3.591C.13,8.974.076,8.538,0,8.108V6.815c.015-.08.03-.159.046-.239A16.486,16.486,0,0,1,.471,4.594,6.374,6.374,0,0,1,4.912.256C5.337.134,5.783.084,6.22,0" fill="none" stroke="#162c5b" stroke-width="2"/>
    </g>
  </g>
</svg>
