<svg id="Group_63138" data-name="Group 63138" xmlns="http://www.w3.org/2000/svg" xmlns:xlink="http://www.w3.org/1999/xlink" width="18.494" height="18.502" viewBox="0 0 18.494 18.502">
  <defs>
    <clipPath id="clip-path">
      <rect id="Rectangle_3984" data-name="Rectangle 3984" width="18.494" height="18.502" fill="#3c97f2"/>
    </clipPath>
  </defs>
  <g id="Group_3531" data-name="Group 3531" clip-path="url(#clip-path)">
    <path id="Path_1162" data-name="Path 1162" d="M2.563,54.962a6.2,6.2,0,0,1-.954-.3,2.786,2.786,0,0,1-1.6-2.421C0,52.171,0,52.1,0,52.038q0-5.645,0-11.291A2.822,2.822,0,0,1,1.941,37.99a3.143,3.143,0,0,1,.973-.152c2.041-.013,4.082-.007,6.123-.006.39,0,.568.183.569.578q0,.551,0,1.1c0,.415-.179.6-.591.6H3c-.515,0-.722.207-.722.723q0,5.564,0,11.128c0,.51.214.722.727.722H14.13c.512,0,.718-.209.718-.727q0-2.836,0-5.672c0-.453.169-.625.617-.626.373,0,.747,0,1.12,0a.481.481,0,0,1,.539.518c0,2.017.011,4.035-.007,6.052a2.835,2.835,0,0,1-2.387,2.693c-.058.009-.115.027-.173.041Z" transform="translate(0 -36.46)" fill="#3c97f2"/>
    <path id="Path_1163" data-name="Path 1163" d="M224.55,5.818a.632.632,0,0,1-.676.362c-.354-.018-.71,0-1.065,0a.488.488,0,0,1-.538-.537c0-.506,0-1.011,0-1.517V3.948l-.083-.064a.757.757,0,0,1-.1.189q-3.214,3.221-6.433,6.437c-.329.329-.562.33-.888,0l-.7-.7c-.355-.355-.356-.578-.006-.928q3.211-3.211,6.423-6.422a1.259,1.259,0,0,1,.16-.117l-.029-.053c-.048,0-.1-.012-.145-.012-.512,0-1.023,0-1.535,0a.5.5,0,0,1-.554-.558q0-.578,0-1.156A.5.5,0,0,1,218.947,0c1.667,0,3.334,0,5,0a.61.61,0,0,1,.6.363Z" transform="translate(-206.056 0)" fill="#3c97f2"/>
  </g>
</svg>
