<svg id="Group_3528" data-name="Group 3528" xmlns="http://www.w3.org/2000/svg" xmlns:xlink="http://www.w3.org/1999/xlink" width="17.431" height="18.667" viewBox="0 0 17.431 18.667">
  <defs>
    <clipPath id="clip-path">
      <rect id="Rectangle_3983" data-name="Rectangle 3983" width="17.431" height="18.667" fill="#fe9b29"/>
    </clipPath>
  </defs>
  <g id="Group_3527" data-name="Group 3527" clip-path="url(#clip-path)">
    <path id="Path_1160" data-name="Path 1160" d="M14.586,0a3.8,3.8,0,0,1,.5.161,1.82,1.82,0,0,1,1.1,1.646c.013.254,0,.51,0,.689A8.613,8.613,0,0,1,17,3.157a1.618,1.618,0,0,1,.432,1.149q0,2.605,0,5.211a1.749,1.749,0,0,1-.5,1.252c-.431.444-.873.879-1.311,1.317q-2.982,2.983-5.965,5.965a1.838,1.838,0,0,1-2.181.423,2.134,2.134,0,0,1-.542-.391q-2.559-2.543-5.1-5.1a1.85,1.85,0,0,1-.551-1.66.259.259,0,0,0-.065-.187c-.2-.212-.41-.414-.615-.621a1.846,1.846,0,0,1,0-2.7Q4.2,4.192,7.823.574A2.144,2.144,0,0,1,8.936,0ZM12.993,3.717c-.832,0-1.665,0-2.5,0a.767.767,0,0,0-.585.238q-3.6,3.605-7.2,7.206a.617.617,0,0,0-.006.96q2.544,2.546,5.091,5.09a.616.616,0,0,0,.947,0q3.616-3.613,7.231-7.228a.717.717,0,0,0,.221-.538q0-2.524,0-5.048a.619.619,0,0,0-.682-.674H12.993m1.959-1.239c0-.188,0-.356,0-.525a.63.63,0,0,0-.717-.713c-1.646,0-3.292,0-4.938,0a.866.866,0,0,0-.662.276Q5.077,5.08,1.512,8.639c-.039.039-.079.076-.114.117a.593.593,0,0,0-.019.785c.183.207.395.389.627.614a1.475,1.475,0,0,1,.131-.175Q5.574,6.539,9.013,3.1a1.968,1.968,0,0,1,1.481-.622c.516.007,1.033,0,1.549,0h2.909" transform="translate(0)" fill="#fe9b29"/>
    <path id="Path_1161" data-name="Path 1161" d="M311.445,137.577a1.857,1.857,0,1,1-1.846-1.859,1.864,1.864,0,0,1,1.846,1.859m-1.852-.621a.62.62,0,0,0-.623.622.629.629,0,0,0,.617.615.622.622,0,0,0,.62-.626.613.613,0,0,0-.614-.61" transform="translate(-296.494 -130.762)" fill="#fe9b29"/>
  </g>
</svg>
