<svg xmlns="http://www.w3.org/2000/svg" width="27.953" height="20.5" viewBox="0 0 27.953 20.5">
  <g id="Layer_2" transform="translate(-1.25 -5.146)">
    <g id="Group_12021" data-name="Group 12021" transform="translate(2 6)">
      <path id="Path_25263" data-name="Path 25263" d="M23,25.227h6.613V21.448h0a2.834,2.834,0,0,1,0-5.669h0V12H23" transform="translate(-3.16 -6.331)" fill="none" stroke="#162c5b" stroke-linecap="round" stroke-linejoin="round" stroke-miterlimit="10" stroke-width="1.5"/>
      <path id="Path_25264" data-name="Path 25264" d="M19.006,12H2v3.779H2a2.834,2.834,0,0,1,0,5.669H2v3.779H19.006" transform="translate(-2 -6.331)" fill="none" stroke="#162c5b" stroke-linecap="round" stroke-linejoin="round" stroke-miterlimit="10" stroke-width="1.5"/>
      <line id="Line_65" data-name="Line 65" y2="2" transform="translate(19 5.895)" fill="none" stroke="#162c5b" stroke-linecap="round" stroke-linejoin="round" stroke-miterlimit="10" stroke-width="1.5"/>
      <line id="Line_66" data-name="Line 66" y2="2" transform="translate(19 16.895)" fill="none" stroke="#162c5b" stroke-linecap="round" stroke-linejoin="round" stroke-miterlimit="10" stroke-width="1.5"/>
      <line id="Line_67" data-name="Line 67" x2="9" transform="translate(6 9.895)" fill="none" stroke="#162c5b" stroke-linecap="round" stroke-linejoin="round" stroke-miterlimit="10" stroke-width="1.5"/>
      <line id="Line_68" data-name="Line 68" x2="5" transform="translate(10 12.895)" fill="none" stroke="#162c5b" stroke-linecap="round" stroke-linejoin="round" stroke-miterlimit="10" stroke-width="1.5"/>
      <line id="Line_69" data-name="Line 69" y2="2" transform="translate(19 -0.105)" fill="none" stroke="#162c5b" stroke-linecap="round" stroke-linejoin="round" stroke-miterlimit="10" stroke-width="1.5"/>
      <line id="Line_70" data-name="Line 70" y2="4" transform="translate(19 9.895)" fill="none" stroke="#162c5b" stroke-linecap="round" stroke-linejoin="round" stroke-miterlimit="10" stroke-width="1.5"/>
      <line id="Line_71" data-name="Line 71" x1="1" y2="1" transform="translate(22 1.895)" fill="none" stroke="#162c5b" stroke-linecap="round" stroke-linejoin="round" stroke-miterlimit="10" stroke-width="1.5"/>
      <line id="Line_72" data-name="Line 72" x2="1" y2="1" transform="translate(15 1.895)" fill="none" stroke="#162c5b" stroke-linecap="round" stroke-linejoin="round" stroke-miterlimit="10" stroke-width="1.5"/>
    </g>
  </g>
</svg>
