<svg xmlns="http://www.w3.org/2000/svg" xmlns:xlink="http://www.w3.org/1999/xlink" width="19.531" height="21.31" viewBox="0 0 19.531 21.31">
  <defs>
    <clipPath id="clip-path">
      <rect id="Rectangle_3966" data-name="Rectangle 3966" width="19.531" height="21.309" fill="#162c5b"/>
    </clipPath>
  </defs>
  <g id="Group_63137" data-name="Group 63137" transform="translate(0)">
    <g id="Group_3504" data-name="Group 3504" transform="translate(0)" clip-path="url(#clip-path)">
      <path id="Path_1156" data-name="Path 1156" d="M16.352,0a8.964,8.964,0,0,1,.917.25,3.546,3.546,0,0,1-.778,6.814,3.475,3.475,0,0,1-2.933-.918c-.061-.056-.12-.114-.193-.184L6.949,9.619a3.635,3.635,0,0,1,0,2.069l6.418,3.659a3.529,3.529,0,0,1,2.7-1.139,3.422,3.422,0,0,1,2.239.872,3.551,3.551,0,0,1-3.428,6.056,3.59,3.59,0,0,1-2.362-4.228l-1.671-.954Q8.523,14.631,6.205,13.3a.248.248,0,0,0-.34.03,3.4,3.4,0,0,1-3.559.634A3.388,3.388,0,0,1,.035,11.109a3.508,3.508,0,0,1,1.854-3.59,3.536,3.536,0,0,1,3.981.452c.086.075.148.141.283.064Q9.326,6.215,12.511,4.4c-.025-.212-.063-.423-.072-.635A3.53,3.53,0,0,1,15.506.034.54.54,0,0,0,15.6,0Z" transform="translate(0)" fill="#162c5b"/>
    </g>
  </g>
</svg>
