<svg id="Group_3611" data-name="Group 3611" xmlns="http://www.w3.org/2000/svg" xmlns:xlink="http://www.w3.org/1999/xlink" width="92.637" height="91.147" viewBox="0 0 92.637 91.147">
  <defs>
    <clipPath id="clip-path">
      <rect id="Rectangle_4000" data-name="Rectangle 4000" width="92.637" height="91.147" fill="#e2f0ff"/>
    </clipPath>
  </defs>
  <g id="Group_3610" data-name="Group 3610" clip-path="url(#clip-path)">
    <path id="Path_1230" data-name="Path 1230" d="M92.637,49.793v14.86c-.038.051-.1.1-.11.153a9.344,9.344,0,0,1-5.606,7.113,1.15,1.15,0,0,0-.44.887c-.033,2.894-.014,5.788-.021,8.682-.013,5.647-3.915,9.636-9.555,9.642q-33.67.033-67.34,0A9.2,9.2,0,0,1,0,81.494q-.01-24.263.005-48.526a29.134,29.134,0,0,0,.14-3.251,23.576,23.576,0,0,1,.556-8.135A27.714,27.714,0,0,1,46.386,7.233a1.3,1.3,0,0,0,1.6.295q6.6-2.689,13.228-5.3a9.243,9.243,0,0,1,12.9,8.737c.012,3.73,0,7.461,0,11.191V23.21c1.019,0,1.886-.006,2.753,0a9.292,9.292,0,0,1,9.6,9.631c.009,2.862.019,5.724-.012,8.586a1.1,1.1,0,0,0,.751,1.227,8.6,8.6,0,0,1,4.552,4.5,27.5,27.5,0,0,1,.887,2.634M6.275,45.344a1.53,1.53,0,0,0-.07.3q-.015,18.14-.017,36.28a3,3,0,0,0,2.151,2.89,5.161,5.161,0,0,0,1.429.145q33.483.01,66.966.006h.193A3.092,3.092,0,0,0,80.284,81.6c.009-2.7,0-5.4,0-8.105,0-.25-.029-.5-.051-.863H79.162c-2.67,0-5.34.045-8.009-.012A9.215,9.215,0,0,1,61.76,63q-.012-5.789,0-11.579a9.28,9.28,0,0,1,9.652-9.668c2.605-.014,5.211,0,7.816,0,.337,0,.674-.031,1.058-.049,0-2.938,0-5.765,0-8.591,0-2.556-1.159-3.723-3.7-3.724q-10.035,0-20.07,0h-.965c-1.466,12.381-7.617,21.155-19.54,24.874-11.639,3.631-21.544.056-29.734-8.915M49.4,27.767A21.611,21.611,0,1,0,27.358,49.4,21.641,21.641,0,0,0,49.4,27.767M67.935,57.223c0,1.993-.011,3.986,0,5.979a3.012,3.012,0,0,0,3.087,3.231q6.171.06,12.343,0a3.014,3.014,0,0,0,3.089-3.23q.021-5.979,0-11.957a3.08,3.08,0,0,0-3.235-3.3q-6.027-.045-12.054,0a3.083,3.083,0,0,0-3.231,3.307c-.012,1.993,0,3.986,0,5.979M51.221,12.87c.163.313.268.541.4.754A26.419,26.419,0,0,1,54.93,22.3c.139.738.4.927,1.109.921,3.664-.032,7.328-.014,10.992-.017.277,0,.554-.036.9-.06v-.817c0-3.76.008-7.52,0-11.281-.008-2.64-2.065-4.03-4.533-3.056-2.924,1.155-5.838,2.336-8.756,3.506L51.221,12.87" transform="translate(0 0)" fill="#3c97f2"/>
    <path id="Path_1231" data-name="Path 1231" d="M32.074,167.9c8.19,8.971,18.094,12.546,29.734,8.915,11.923-3.719,18.073-12.493,19.54-24.874h.965q10.035,0,20.07,0c2.543,0,3.7,1.168,3.7,3.723,0,2.827,0,5.654,0,8.592-.384.019-.721.048-1.057.049-2.605,0-5.211-.009-7.816,0a9.28,9.28,0,0,0-9.652,9.668q-.012,5.789,0,11.579a9.215,9.215,0,0,0,9.393,9.616c2.668.057,5.339.011,8.009.012h1.071c.022.362.05.612.051.863,0,2.7.009,5.4,0,8.105a3.092,3.092,0,0,1-3.357,3.366h-.193q-33.483,0-66.965-.006a5.162,5.162,0,0,1-1.43-.145,3,3,0,0,1-2.151-2.89q-.008-18.14.018-36.28a1.53,1.53,0,0,1,.07-.3" transform="translate(-25.799 -122.557)" fill="#e2f0ff"/>
    <path id="Path_1232" data-name="Path 1232" d="M75.168,53.538A21.611,21.611,0,1,1,53.754,31.95,21.6,21.6,0,0,1,75.168,53.538M56.646,50.476c0-2.126.023-4.143-.007-6.161a3.08,3.08,0,1,0-6.16.014c-.027,1.7-.007,3.406-.007,5.11v1.039c-2.181,0-4.206-.029-6.23.009a3.058,3.058,0,0,0-3.031,3.1A3.1,3.1,0,0,0,44.2,56.643c.641.029,1.285.008,1.928.008h4.343c0,2.16-.026,4.182.008,6.2a3.081,3.081,0,0,0,6.161-.009c.018-.513,0-1.028,0-1.542,0-1.53,0-3.06,0-4.651,2.047,0,3.97.007,5.893,0a3.1,3.1,0,1,0,.033-6.171c-1.926-.01-3.853,0-5.928,0" transform="translate(-25.768 -25.771)" fill="#e2f0ff"/>
    <path id="Path_1233" data-name="Path 1233" d="M351.261,257.067c0-1.993-.009-3.986,0-5.979a3.083,3.083,0,0,1,3.231-3.307q6.027-.046,12.054,0a3.08,3.08,0,0,1,3.235,3.3q.018,5.979,0,11.958a3.014,3.014,0,0,1-3.088,3.23q-6.171.069-12.343,0a3.013,3.013,0,0,1-3.087-3.231c-.015-1.993,0-3.986,0-5.979" transform="translate(-283.327 -199.844)" fill="#e2f0ff"/>
    <path id="Path_1234" data-name="Path 1234" d="M264.853,44.907l3.422-1.371c2.918-1.17,5.832-2.351,8.756-3.506,2.467-.974,4.525.416,4.533,3.056.011,3.76,0,7.52,0,11.281v.817c-.349.024-.626.06-.9.06-3.664,0-7.328-.015-10.992.017-.709.006-.97-.183-1.109-.921a26.419,26.419,0,0,0-3.314-8.679c-.127-.214-.232-.441-.4-.754" transform="translate(-213.632 -32.037)" fill="#e2f0ff"/>
    <path id="Path_1235" data-name="Path 1235" d="M95.294,89.12c2.075,0,4-.008,5.928,0a3.1,3.1,0,1,1-.033,6.171c-1.923.009-3.846,0-5.893,0,0,1.591,0,3.121,0,4.651,0,.514.014,1.029,0,1.542a3.081,3.081,0,0,1-6.161.009c-.034-2.021-.008-4.043-.008-6.2H84.779c-.643,0-1.286.021-1.928-.008a3.1,3.1,0,0,1-2.991-3.054,3.058,3.058,0,0,1,3.031-3.1c2.023-.038,4.048-.009,6.23-.009V88.083c0-1.7-.02-3.407.007-5.11a3.08,3.08,0,1,1,6.16-.014c.03,2.017.007,4.035.007,6.161" transform="translate(-64.415 -64.415)" fill="#3c97f2"/>
  </g>
</svg>
