<svg xmlns="http://www.w3.org/2000/svg" xmlns:xlink="http://www.w3.org/1999/xlink" width="61" height="61" viewBox="0 0 61 61">
  <defs>
    <clipPath id="clip-path">
      <rect id="Rectangle_4447" data-name="Rectangle 4447" width="26.697" height="32.038" fill="#fff"/>
    </clipPath>
  </defs>
  <g id="Group_63489" data-name="Group 63489" transform="translate(6541 -4664)">
    <circle id="Ellipse_315" data-name="Ellipse 315" cx="30.5" cy="30.5" r="30.5" transform="translate(-6541 4664)" fill="#e2e2e2"/>
    <g id="Group_63488" data-name="Group 63488" transform="translate(-6523.744 4678.307)">
      <g id="Group_63487" data-name="Group 63487" clip-path="url(#clip-path)">
        <path id="Path_26669" data-name="Path 26669" d="M13.032,0h.625a.6.6,0,0,0,.1.064,1.324,1.324,0,0,1,.918,1.344c0,.354.012.709,0,1.063-.01.229.052.317.3.358a9.318,9.318,0,0,1,7.706,8.932c.025,1.282.008,2.565.009,3.847a9.06,9.06,0,0,0,1.234,4.654A10.028,10.028,0,0,0,25.9,22.62a2.305,2.305,0,0,1,.323,3.138,2.426,2.426,0,0,1-2.074.948q-10.806-.007-21.613,0c-.083,0-.167,0-.25,0A2.315,2.315,0,0,1,.056,24.854,2.356,2.356,0,0,1,.92,22.487a8.618,8.618,0,0,0,3.039-6.131c.08-1.382.018-2.772.055-4.158A11.368,11.368,0,0,1,4.2,10.182a9.281,9.281,0,0,1,7.587-7.362c.187-.033.239-.108.235-.285-.009-.417-.012-.834,0-1.251a1.275,1.275,0,0,1,.8-1.172c.072-.035.142-.074.213-.111" transform="translate(0)" fill="#fff"/>
        <path id="Path_26670" data-name="Path 26670" d="M15.941,42.514a12.876,12.876,0,0,1-1.814-.627,4.821,4.821,0,0,1-2.491-3.207,1.132,1.132,0,0,1-.015-.147h9.772a4.413,4.413,0,0,1-.674,1.66,4.94,4.94,0,0,1-3.51,2.267.7.7,0,0,0-.142.053Z" transform="translate(-3.159 -10.476)" fill="#fff"/>
      </g>
    </g>
  </g>
</svg>
