<svg xmlns="http://www.w3.org/2000/svg" width="22.161" height="24.261" viewBox="0 0 22.161 24.261">
  <path id="Union_24" data-name="Union 24" d="M10.16,23.26a9.867,9.867,0,0,1-1.487-.507A3.825,3.825,0,0,1,6.69,20.1h7.8a9.066,9.066,0,0,1-.388.994,3.893,3.893,0,0,1-2.957,2.127A.99.99,0,0,0,11,23.26Zm8.673-4.227q-8.35,0-16.7,0a2.285,2.285,0,0,1-1.419-.423A1.959,1.959,0,0,1,0,17.46v-.595a2.818,2.818,0,0,1,.932-1.358A6.946,6.946,0,0,0,3.17,10.366c.013-.974,0-1.949,0-2.923a7.388,7.388,0,0,1,5.5-7.2A6.965,6.965,0,0,1,10.58,0a6.965,6.965,0,0,1,1.905.244,7.387,7.387,0,0,1,5.5,7.2c0,.975-.01,1.949,0,2.924a8.034,8.034,0,0,0,.064.917c.048.3.1.592.172.881q.061.243.138.478a6.972,6.972,0,0,0,1.865,2.864c.082.078.162.155.24.235a2.413,2.413,0,0,1,.435.532,1.973,1.973,0,0,1,.256.591v.595a1.952,1.952,0,0,1-.713,1.152,2.087,2.087,0,0,1-.96.391,2.493,2.493,0,0,1-.262.028l-.068,0-.13,0ZM10.581,3.766a6.975,6.975,0,0,0,0-1.039A6.978,6.978,0,0,0,10.581,3.766Z" transform="translate(0.5 0.5)" fill="#3C97F2" stroke="rgba(0,0,0,0)" stroke-miterlimit="10" stroke-width="1"/>
</svg>
