<svg id="Group_63253" data-name="Group 63253" xmlns="http://www.w3.org/2000/svg" xmlns:xlink="http://www.w3.org/1999/xlink" width="512" height="512" viewBox="0 0 512 512">
  <defs>
    <clipPath id="clip-path">
      <rect id="Rectangle_4103" data-name="Rectangle 4103" width="512" height="512" fill="none"/>
    </clipPath>
  </defs>
  <rect id="Rectangle_4102" data-name="Rectangle 4102" width="311" height="311" transform="translate(103 101)" fill="#fff"/>
  <g id="Group_63252" data-name="Group 63252">
    <g id="Group_63251" data-name="Group 63251" clip-path="url(#clip-path)">
      <path id="Path_41" data-name="Path 41" d="M160,395V342.337c0-15.165-.137-30.333.138-45.494a12.1,12.1,0,0,1,3.048-7.243c5.38-5.908,11.158-11.459,16.875-17.054,7.618-7.457,16.216-7.559,23.8-.079,11.969,11.81,23.781,23.781,37.406,37.434.992-1.947,1.483-3.953,2.73-5.207q39.315-39.521,78.787-78.885c9.16-9.155,17.218-9.209,26.3-.161,12.031,11.986,24.028,24.006,36.382,36.354-1.367,1.48-2.517,2.814-3.759,4.056q-62.565,62.581-125.1,125.2a11.638,11.638,0,0,1-9.1,3.829c-27.163-.162-54.328-.086-81.492-.086Z" fill="#53abff"/>
      <path id="Path_42" data-name="Path 42" d="M240.3,139.015a39.986,39.986,0,1,1-40.284,39.8,40.031,40.031,0,0,1,40.284-39.8" fill="#53abff"/>
      <path id="Path_43" data-name="Path 43" d="M185,512H0V386a32.153,32.153,0,0,0,.87-3.789c2.33-21.6,9.756-41.385,21.318-59.654,16.073-25.4,39.475-44.1,60.2-65.221a8.487,8.487,0,0,0,2.88-6.712q-.041-75-.019-150c0-12.516,2.825-15.372,15.216-15.373q91,0,182,0h6.32c2.948-15.357,8.3-29.576,19.482-39.31C318.919,36.662,321.5,26.34,320,13.6c-.715-6.09,1.566-10.66,7-13.6H512V126a32.419,32.419,0,0,0-.885,3.839c-2.019,18.633-8.035,35.937-16.977,52.346-15.56,28.562-41.107,48.267-62.917,71.289a.913.913,0,0,1-.388.3c-4.382.975-4.122,4.275-4.119,7.711q.078,75.228.013,150.458a37.387,37.387,0,0,1-.552,6.943,8.556,8.556,0,0,1-7.271,7.278,41.176,41.176,0,0,1-7.44.56q-90.977.043-181.95.022H223.2c-2.961,15.359-8.336,29.54-19.48,39.315-10.578,9.278-13.257,19.58-11.729,32.336.729,6.082-1.594,10.644-6.992,13.6M404.791,405.25V199.926c-1.6,1.465-2.788,2.514-3.929,3.615-8.271,7.988-16.339,16.2-24.836,23.934-13.99,12.733-35.372,8.1-42.889-9.262-6.164-14.24-4.21-27.738,5.2-39.972,12.081-15.716,24.437-31.223,36.573-46.9.966-1.247,2.063-3.554,1.545-4.6-3.289-6.635-7.014-13.054-10.612-19.571h-258.6V312.235c9.569-9.27,18.315-18.2,27.555-26.595,17.148-15.575,39.255-7.351,45.374,11.478,4.356,13.4,1.968,25.685-6.559,36.726q-18.025,23.337-36.378,46.418c-2.03,2.559-2.55,4.27-.444,7.28a51.682,51.682,0,0,1,6.814,13.242c1.27,3.852,3.157,4.565,6.785,4.542,23.994-.147,47.989-.076,71.983-.076H404.791m-40-320.2c.378-1.577.768-2.845.982-4.143,2.148-13.136,8.5-24.049,17.737-33.4,4.667-4.724,10.664-4.95,15.125-.752,4.476,4.212,4.568,10.031.226,15.134-1.833,2.156-3.828,4.19-5.513,6.455-10.794,14.5-9.323,34.983,3.3,46.976,6.93,6.583,7.232,10.55,1.467,18.029q-20.281,26.319-40.519,52.67c-5.429,7.07-7.416,14.8-4.179,23.424,1.554,4.146,4.37,5.062,8.09,2.555a25.5,25.5,0,0,0,3.365-2.967q18.285-17.758,36.547-35.54c13.138-12.777,26.234-25.6,39.433-38.307,5.189-5,10.541-5.306,15.13-1.235,5.093,4.516,5.057,10.837-.331,16.184-8.631,8.566-17.484,16.913-26.008,25.583a10.287,10.287,0,0,0-2.766,6.4c-.242,14.49-.137,28.987-.106,43.482a36.8,36.8,0,0,0,.549,4.18c10.159-10.17,19.636-19.77,29.237-29.244,24.388-24.068,36.24-53.326,36.3-87.458.057-28.657.013-57.313.013-85.969V21.541H343.434c0,5.728-.174,11.184.048,16.623.226,5.556-2.016,9.426-6.59,12.525-11.017,7.462-18.246,17.821-22.246,30.462a32.893,32.893,0,0,0-.722,3.9ZM85.238,283.826c-10.149,10.154-19.15,19.221-28.217,28.221-23.937,23.758-35.582,52.639-35.74,86.205-.137,29-.035,58-.018,87,0,1.747.182,3.494.269,5.061H170.751c0-5.75.228-11.077-.061-16.376-.305-5.593,2.3-9.083,6.378-12.67a109.907,109.907,0,0,0,16.276-17.316c3.475-4.751,5.14-10.826,7.854-16.847h-53.99c-5.328,20.564-5.328,20.564-19.145,38.025-4.048,5.116-9.839,5.524-15.642,1.1-5.128-3.909-6.139-9.936-2.368-14.93,1.6-2.122,3.537-3.99,5.213-6.06,12.453-15.383,11.132-35.959-3.151-49.581-5.493-5.238-5.751-10.023-.96-16.236q20.45-26.519,40.863-53.063c5.933-7.7,7.961-16.062,3.808-25.2a4.468,4.468,0,0,0-3.93-1.807c-1.612.423-3.011,1.966-4.313,3.226q-16.885,16.339-33.7,32.753-21.144,20.566-42.3,41.119c-5.072,4.907-9.621,5.625-14.313,2.522-6.009-3.973-6.708-11.258-1.284-16.691,8.711-8.728,17.669-17.208,26.4-25.918,1.3-1.3,2.71-3.264,2.734-4.94.209-15.306.123-30.615.123-47.59" fill="#53abff"/>
      <path id="Path_44" data-name="Path 44" d="M364.788,85.054H313.925a32.93,32.93,0,0,1,.721-3.9c4-12.641,11.23-23,22.245-30.461,4.575-3.1,6.816-6.969,6.59-12.525-.221-5.44-.048-10.9-.048-16.624H492.875v5.574c0,28.656.043,57.313-.013,85.969-.066,34.132-11.917,63.391-36.3,87.459-9.6,9.474-19.078,19.074-29.238,29.244a37,37,0,0,1-.548-4.181c-.031-14.494-.137-28.991.105-43.482a10.291,10.291,0,0,1,2.767-6.4c8.524-8.67,17.376-17.018,26.008-25.584,5.388-5.347,5.423-11.667.331-16.184-4.589-4.07-9.942-3.76-15.13,1.236-13.2,12.711-26.3,25.529-39.433,38.306q-18.271,17.772-36.547,35.541A25.509,25.509,0,0,1,361.506,212c-3.719,2.507-6.535,1.591-8.09-2.555-3.237-8.627-1.248-16.355,4.179-23.424q20.234-26.355,40.52-52.67c5.764-7.479,5.463-11.447-1.467-18.03-12.626-11.993-14.1-32.474-3.3-46.975,1.686-2.265,3.68-4.3,5.514-6.455,4.341-5.1,4.249-10.923-.227-15.135-4.461-4.2-10.456-3.972-15.124.753-9.238,9.349-15.589,20.262-17.738,33.4-.213,1.3-.6,2.567-.982,4.144" fill="#c5e5ff"/>
      <path id="Path_45" data-name="Path 45" d="M85.238,283.826c0,16.975.086,32.284-.123,47.59-.024,1.676-1.434,3.643-2.734,4.94-8.73,8.71-17.688,17.19-26.4,25.918-5.424,5.433-4.725,12.718,1.284,16.691,4.692,3.1,9.241,2.385,14.313-2.522q21.2-20.51,42.3-41.119,16.843-16.385,33.7-32.753c1.3-1.26,2.7-2.8,4.313-3.226a4.468,4.468,0,0,1,3.93,1.807c4.153,9.142,2.125,17.5-3.808,25.2q-20.433,26.531-40.863,53.063c-4.791,6.213-4.533,11,.96,16.236,14.283,13.622,15.6,34.2,3.151,49.581-1.676,2.07-3.611,3.938-5.213,6.06-3.771,4.994-2.76,11.021,2.368,14.93,5.8,4.424,11.594,4.016,15.642-1.1,13.817-17.461,13.817-17.461,19.145-38.025H201.2c-2.714,6.021-4.379,12.1-7.854,16.847a109.907,109.907,0,0,1-16.276,17.316c-4.081,3.587-6.683,7.077-6.378,12.67.289,5.3.061,10.626.061,16.376H21.532c-.087-1.567-.268-3.314-.269-5.061-.017-29-.119-58,.018-87,.158-33.566,11.8-62.447,35.74-86.205,9.067-9,18.068-18.067,28.217-28.221" fill="#c5e5ff"/>
    </g>
  </g>
</svg>
