<svg id="Group_63255" data-name="Group 63255" xmlns="http://www.w3.org/2000/svg" xmlns:xlink="http://www.w3.org/1999/xlink" width="457.795" height="511.774" viewBox="0 0 457.795 511.774">
  <defs>
    <clipPath id="clip-path">
      <rect id="Rectangle_4104" data-name="Rectangle 4104" width="457.795" height="511.774" fill="none"/>
    </clipPath>
  </defs>
  <g id="Group_63254" data-name="Group 63254" clip-path="url(#clip-path)">
    <path id="Path_46" data-name="Path 46" d="M356.84,0h7c1.578,1.545,3.545,2.849,4.675,4.671C382.945,27.944,396.9,51.466,406.36,77.343c6.742,18.448,4.053,35.256-8.545,50.323-1.87,2.237-1.174,3.116.676,4.589a198.732,198.732,0,0,1,25.052,23.54c14.953,16.861,26.942,35.344,31.781,57.8.953,4.419.355,9.115,2.471,13.3v6c-1.766.7-.928,2.284-1.065,3.45-.978,8.3-2.552,16.5-6.394,23.951-9.612,18.634-25.592,26.137-45.979,25.426-2.913-.1-4.781-.192-4.721,3.939a1119.383,1119.383,0,0,1-4.853,123.706c-2.151,22.357-4.89,44.66-11,66.346-3.524,12.514-6.619,25.539-19.948,32.059h-9c-10.005-6.164-14.179-16.071-17.44-26.7-6.08-19.808-9.09-40.2-11.383-60.68-4.225-37.754-5.856-75.668-6.181-113.646-.012-1.356.657-2.931-.676-4.2-.471.311-.9.542-1.267.843-28.113,22.873-39.956,52.691-37.51,88.477,1.2,17.49-.064,34.589-7.118,50.863C253.18,493.078,200.9,517.577,152.024,500.6,66.131,470.763,16.292,409.666,1.9,319.829c-1.352-8.441.575-11.261,8.184-14.064,7.387.62,10.016,2.955,11.288,10.141.348,1.963.427,3.975.788,5.935,13.782,74.907,55.7,127.3,126.008,156.617,22.607,9.428,45.662,10.1,68.328-.21,30.813-14.016,46.634-43.968,44.07-80.673-3.4-48.661,15.209-86.83,56.248-113.646a6.5,6.5,0,0,0,3.372-5.97q.612-18.723,1.615-37.433c1.814-33.259,4.733-66.386,12.741-98.847.536-2.176.372-3.558-1.775-4.951a48.589,48.589,0,0,1-20.6-27.866,4.929,4.929,0,0,0-3.016-3.55c-42.715-18.372-87.005-25.7-132.57-14.535C98.379,109.943,48.955,159.792,26.179,236.6,23.958,244.1,21.7,246.051,13.9,246.2c-7.2-3.066-9.092-6.609-7.079-14.1C24.177,167.462,62.5,119.305,122.061,89.072c58.81-29.851,119.548-29.855,180.929-7.864,2.8,1,5.591,2.047,8.386,3.073,1.016-2.8,2.014-5.6,3.049-8.392,8.887-23.96,21.759-45.853,34.959-67.587A26.15,26.15,0,0,1,356.84,0m30.971,149.955-.533-.606c-.025.15-.112.323-.064.443.168.424.415.43.675.044-.89,1.466-.144,2.95.135,4.333,3.954,19.573,6.246,39.36,7.963,59.236,1.389,16.073,2.454,32.158,2.942,48.283.056,1.854-.528,3.82,2.718,4.154,18.147,1.865,29.8-6.028,33.725-23.41a56.039,56.039,0,0,0,1.349-11.354c.249-14.924-4.722-28.385-12.362-40.91a137.155,137.155,0,0,0-36.548-40.213M359.6,487.2c.631-.726,1.035-1.013,1.19-1.4.74-1.849,1.5-3.7,2.094-5.6,8.027-25.751,10.457-52.43,12.9-79.086,2.041-22.222,2.87-44.521,3.629-66.817.975-28.648.219-57.277-.84-85.908-.159-4.3-1.935-4.717-5.523-4.161-7.77,1.2-15.63.887-23.431.36-8.314-.562-8.27-.774-8.635,7.73q-2.5,58.194.7,116.351c1.756,31.084,4.069,62.09,10.173,92.68,1.737,8.705,3.665,17.4,7.736,25.846m.943-457.4c-.731.621-1.224.865-1.454,1.262-9.92,17.107-19.571,34.353-26.4,53-2.017,5.508-3.137,11.053-1.928,17.056,3.185,15.819,19.559,26.789,35.227,23.311,16.344-3.629,27.454-19.572,23.247-34.506-6.082-21.594-17.786-40.586-28.693-60.12m-.643,194.91c2.992,0,5.995.162,8.975-.031,8.034-.522,8.024-.582,7.211-8.706-.132-1.323-.146-2.658-.273-3.981-2.057-21.337-4.692-42.574-9.452-63.526-1.391-6.124-5.645-2.594-8.573-3.469-3.048-.91-3.842.933-4.46,3.554-5.62,23.845-8.078,48.131-10.356,72.45-.191,2.041.207,2.853,2.5,3.081a98.148,98.148,0,0,0,14.428.628" fill="#53abff"/>
    <path id="Path_47" data-name="Path 47" d="M9.975,286.024c-4.527-.1-7.117-3.341-9.975-6.148v-8c3.129-2.986,5.994-6.447,10.97-6.126,6.455,2.244,9.365,5.768,8.968,10.861-.389,5-3.562,8-9.963,9.41" fill="#53abff"/>
    <path id="Path_48" data-name="Path 48" d="M9.975,286.025c6.4-1.414,9.574-4.411,9.964-9.411.4-5.092-2.514-8.617-8.968-10.861q1.464-9.778,2.929-19.558c7.806-.143,10.059-2.1,12.28-9.59,22.775-76.812,72.2-126.662,150.408-145.827,45.565-11.166,89.854-3.838,132.569,14.534a4.929,4.929,0,0,1,3.016,3.55,48.589,48.589,0,0,0,20.6,27.866c2.147,1.393,2.312,2.775,1.775,4.951-8.008,32.462-10.927,65.588-12.741,98.848q-1.02,18.705-1.614,37.433a6.5,6.5,0,0,1-3.373,5.969c-41.039,26.816-59.647,64.985-56.248,113.646,2.564,36.706-13.257,66.657-44.07,80.673-22.665,10.31-45.721,9.638-68.328.21-70.306-29.32-112.226-81.71-126.008-156.617-.36-1.96-.44-3.971-.788-5.935-1.271-7.185-3.9-9.52-11.288-10.141q-.056-9.87-.113-19.74M179.75,445.8a39.977,39.977,0,1,0-39.811-40.145A40.118,40.118,0,0,0,179.75,445.8m90.115-289.593a39.975,39.975,0,1,0-40.256,39.7,40.093,40.093,0,0,0,40.256-39.7m-109.95,49.923a39.975,39.975,0,1,0-40.2,39.753,40.092,40.092,0,0,0,40.2-39.753M129.928,326.207A39.976,39.976,0,1,0,89.6,365.837a40.093,40.093,0,0,0,40.327-39.63" fill="#fff"/>
    <path id="Path_49" data-name="Path 49" d="M359.6,487.2c-4.071-8.447-6-17.141-7.735-25.846-6.1-30.59-8.418-61.6-10.173-92.68q-3.286-58.17-.7-116.351c.365-8.5.321-8.292,8.636-7.73,7.8.527,15.66.843,23.431-.36,3.588-.556,5.363-.142,5.522,4.161,1.059,28.631,1.816,57.26.84,85.908-.759,22.3-1.587,44.6-3.628,66.817-2.449,26.656-4.878,53.335-12.9,79.086-.592,1.9-1.355,3.747-2.094,5.6-.155.387-.56.674-1.191,1.4" fill="#c5e5ff"/>
    <path id="Path_50" data-name="Path 50" d="M360.544,29.8c10.907,19.534,22.611,38.526,28.694,60.12,4.206,14.934-6.9,30.877-23.248,34.506-15.668,3.478-32.042-7.492-35.227-23.311-1.209-6-.089-11.549,1.928-17.056,6.828-18.644,16.479-35.891,26.4-53,.229-.4.723-.64,1.453-1.261" fill="#c5e5ff"/>
    <path id="Path_51" data-name="Path 51" d="M387.812,149.953a137.172,137.172,0,0,1,36.547,40.215c7.64,12.524,12.611,25.986,12.362,40.909a56.057,56.057,0,0,1-1.349,11.355c-3.929,17.382-15.578,25.274-33.725,23.409-3.246-.333-2.662-2.3-2.718-4.153-.488-16.125-1.553-32.211-2.942-48.283-1.717-19.876-4.009-39.664-7.963-59.237-.279-1.382-1.025-2.866-.135-4.333Z" fill="#fff"/>
    <path id="Path_52" data-name="Path 52" d="M359.9,224.714a98.148,98.148,0,0,1-14.428-.628c-2.293-.228-2.691-1.04-2.5-3.081,2.278-24.319,4.736-48.605,10.356-72.45.618-2.621,1.412-4.464,4.46-3.554,2.928.875,7.182-2.655,8.573,3.469,4.76,20.952,7.395,42.189,9.452,63.526.127,1.323.141,2.658.273,3.981.813,8.124.823,8.184-7.211,8.706-2.98.193-5.983.031-8.975.031" fill="#fdfdfd"/>
    <path id="Path_53" data-name="Path 53" d="M387.889,149.836c-.26.386-.507.38-.675-.043-.048-.12.039-.294.064-.443l.533.6.078-.118" fill="#fdce9c"/>
    <path id="Path_54" data-name="Path 54" d="M179.75,445.8a39.977,39.977,0,1,1,40.137-39.819A40.134,40.134,0,0,1,179.75,445.8m.067-59.893a19.916,19.916,0,1,0,20.008,19.94,20.029,20.029,0,0,0-20.008-19.94" fill="#53abff"/>
    <path id="Path_55" data-name="Path 55" d="M269.865,156.209a39.975,39.975,0,1,1-39.693-40.255,40.121,40.121,0,0,1,39.693,40.255m-19.983-.392A19.986,19.986,0,1,0,230,175.917a19.989,19.989,0,0,0,19.883-20.1" fill="#53abff"/>
    <path id="Path_56" data-name="Path 56" d="M159.915,206.132a39.975,39.975,0,1,1-39.749-40.2,40.116,40.116,0,0,1,39.749,40.2m-19.867-.267a20.1,20.1,0,1,0-20.318,20.147,20.061,20.061,0,0,0,20.318-20.147" fill="#53abff"/>
    <path id="Path_57" data-name="Path 57" d="M129.928,326.207A39.976,39.976,0,1,1,90.3,285.884a40.127,40.127,0,0,1,39.624,40.323m-19.981-.419A19.988,19.988,0,1,0,90.02,345.845a20.047,20.047,0,0,0,19.927-20.057" fill="#53abff"/>
    <path id="Path_58" data-name="Path 58" d="M179.817,385.908A19.916,19.916,0,1,1,160,406.039a20.03,20.03,0,0,1,19.814-20.131" fill="#fff"/>
    <path id="Path_59" data-name="Path 59" d="M249.882,155.817a19.986,19.986,0,1,1-20.1-19.873,20.014,20.014,0,0,1,20.1,19.873" fill="#c5e5ff"/>
    <path id="Path_60" data-name="Path 60" d="M140.048,205.865a20.1,20.1,0,1,1-19.9-20.059,20.079,20.079,0,0,1,19.9,20.059" fill="#fff"/>
    <path id="Path_61" data-name="Path 61" d="M109.947,325.788a19.988,19.988,0,1,1-20.059-19.921,20.061,20.061,0,0,1,20.059,19.921" fill="#c5e5ff"/>
  </g>
</svg>
