<svg id="Group_63257" data-name="Group 63257" xmlns="http://www.w3.org/2000/svg" xmlns:xlink="http://www.w3.org/1999/xlink" width="511.802" height="406.402" viewBox="0 0 511.802 406.402">
  <defs>
    <clipPath id="clip-path">
      <rect id="Rectangle_4105" data-name="Rectangle 4105" width="511.802" height="406.402" fill="none"/>
    </clipPath>
  </defs>
  <g id="Group_63256" data-name="Group 63256" clip-path="url(#clip-path)">
    <path id="Path_62" data-name="Path 62" d="M0,279.442c1.73-1.046,1.2-3,1.559-4.468C8.867,245.13,28,227.518,57.5,220.515c8.565-2.034,17.113-4.146,25.71-6.033,2.7-.593,3.6-1.654,3.774-4.583.376-6.187-1.077-10.394-6.551-14.559-14.265-10.856-22.628-25.934-23.88-43.8-1.29-18.4-1.938-36.976.485-55.346,4.547-34.469,40.343-60.025,74.646-54.107A67.564,67.564,0,0,1,169.128,61.35c.681.684,1.482,1.247,2.3,1.93C183.943,23.5,218.773-.12,256.213,0c38.852.126,70.835,24.12,84.037,62.615,1.852.219,2.489-1.439,3.527-2.387,20.891-19.087,44.911-24.445,71.045-13.722s39.865,31.433,40.847,59.673c.555,15.94,1.407,32.008-.722,47.9-2.464,18.382-11.723,32.949-26.669,43.907-2.686,1.97-4.884,12.164-3.125,14.937.767,1.209,2.252,1.219,3.522,1.519q12.851,3.039,25.7,6.086c30.627,7.268,49.687,26,56.413,56.946.166.763-.092,1.706,1.015,1.969v80.974c-4.3,5.657-10.252,6.162-16.82,6.094-23.141-.241-46.286-.036-69.428-.165-3-.017-4,.6-3.89,3.787.262,7.651-.1,15.322.14,22.974.193,6.286-2.03,10.827-7.964,13.3H293.886c-2.7-2.923-5.883-5.556-6.124-9.99,2.1-7.821,4.9-9.987,13.12-10,13.827-.023,27.657-.166,41.479.1,3.872.073,4.654-1.112,4.588-4.739-.227-12.491-.052-24.989-.105-37.484-.019-4.484,1.272-8.251,5.376-10.51,7.016-3.862,14.5,1.367,14.6,10.346q.2,19.24-.04,38.484c-.044,3.122.858,3.938,3.916,3.872,9.158-.2,18.325-.171,27.484-.013,2.8.048,3.707-.729,3.675-3.615-.165-14.762.261-29.54-.232-44.288A72.019,72.019,0,0,0,348.961,271.4c-16-4.431-32.269-7.894-48.378-11.946-3.268-.823-4.565.247-5.852,3.224-9.492,21.963-19.217,43.826-28.81,65.746-1.934,4.419-4.668,7.828-9.848,7.915-5.42.091-8.257-3.354-10.28-7.989C236.225,306.423,226.47,284.573,217,262.6c-1.387-3.218-2.693-4.1-6.175-3.208-14.641,3.758-29.43,6.947-44.042,10.806-31.87,8.417-51.046,28.972-55.95,61.584-2.6,17.3-.479,34.924-.892,52.4-.066,2.779,1.868,2.208,3.42,2.213,9.162.028,18.328-.121,27.485.087,3.222.073,4.234-.784,4.182-4.11-.195-12.659-.077-25.323-.079-37.985,0-4.21,1.07-7.928,4.895-10.3,6.9-4.277,14.929.634,15.047,9.438q.258,19.24-.032,38.484c-.051,3.39.688,4.559,4.318,4.489,12.323-.238,24.654-.1,36.982-.087,8.658.008,11.083,1.8,13.644,10-.668,4.878-3.565,8-7.887,9.991H95.963c-5.372-4.185-6.5-9.806-6.1-16.292.4-6.464-.14-12.982.177-19.454.174-3.56-.9-4.351-4.367-4.326-22.955.167-45.913-.063-68.867.18-6.566.07-12.505-.447-16.8-6.094ZM210.256,116.625c-8,0-13.667.057-19.326-.031-2.017-.032-3.079.41-2.991,2.734.377,9.969-.537,19.956.835,29.92a67.774,67.774,0,0,0,66.7,58.444c33.476.333,62.444-24.128,67.5-56.93,1.763-11.438.415-22.944.981-34.4.155-3.147-1.071-4.708-3.692-6.178-8.549-4.794-16.938-9.871-25.4-14.826-3.438-2.014-6.731-5.149-10.392-5.677-4.073-.586-5.9,4.734-9.339,6.615a3.236,3.236,0,0,0-.422.268,94.964,94.964,0,0,1-64.456,20.062M323.514,88.8c.544-4.226-.1-7.753-.593-11.322-5.11-36.67-41.793-63.182-78.1-56.4C209.632,27.658,186.168,57.628,188,93.413c.148,2.886,1.29,3.16,3.6,3.131,8.988-.109,17.985.151,26.964-.154,20.561-.7,38.046-8.536,52.273-23.428,8.073-8.45,10.546-8.875,20.613-2.965,10.555,6.2,21.114,12.387,32.055,18.805M491.838,314.728c0-8.5.139-17-.027-25.49-.44-22.468-13.551-40.5-34.917-47.133-10.617-3.3-21.615-5.349-32.381-8.192-2.682-.709-3.109.763-3.838,2.514C414.6,251.011,408.538,265.6,402.36,280.14a4.882,4.882,0,0,0,.665,5.477c12.771,16.972,18.605,36.245,18.62,57.346,0,2.974,1.074,3.6,3.771,3.544,7.327-.152,14.672-.311,21.984.051,4,.2,4.593-1.307,4.538-4.825-.2-12.659-.133-25.323-.056-37.985.044-7.1,3.8-11.379,9.776-11.46,6.205-.083,10.049,4.258,10.107,11.634.071,9-.02,17.993.033,26.99.029,4.97-1.692,11.619.823,14.467,2.893,3.277,9.718.535,14.777,1.137,4.038.481,4.61-1.306,4.522-4.8-.226-8.991-.076-17.991-.082-26.988m-471.844.014v19.982c0,11.7,0,11.7,11.858,11.7,8.132,0,8.13,0,8.132-7.928,0-11.989-.128-23.98.065-35.966.1-6.264,4.251-10.295,9.893-10.315s9.6,4,10.015,10.237c.077,1.16.021,2.33.021,3.5,0,12.155.124,24.313-.081,36.465-.056,3.313.911,4.191,4.142,4.086,7.318-.238,14.652-.189,21.975-.017,2.831.066,4.064-.365,4.021-3.7a91.2,91.2,0,0,1,18.541-57.253,4.771,4.771,0,0,0,.7-5.423q-9.276-21.77-18.2-43.688c-1.076-2.655-2.235-2.872-4.8-2.209-9,2.328-18.133,4.181-27.14,6.5C34.6,247.023,20.1,265.833,20,291.263c-.031,7.826-.005,15.653-.005,23.479M343.821,116.2c.5,12.163-.885,23.671.861,35.1,2.6,17.047,12.183,29.124,27.84,35.592,15.9,6.567,31.382,4.454,45.216-6.057,12.369-9.4,17.958-22.283,18.126-37.671.137-12.5.141-12.647-12.147-12.463-20.715.312-41.293-.39-61.12-7.285-6.077-2.113-12.02-4.608-18.776-7.218m-175.791.57c-.8-.1-1.169-.26-1.438-.16-1.242.463-2.472.968-3.681,1.514-19.582,8.838-40.179,12.674-61.589,12.552-7.33-.042-14.66-.014-21.991,0-1.6,0-3.369-.468-3.419,2.256-.229,12.394-.183,24.727,6.988,35.638,10.084,15.343,24.385,23.111,42.674,21.528,19.3-1.67,32.712-12.141,39.459-30.427,5.162-13.993,2.061-28.608,3-42.9m-71.586-6.11c1,0,2-.026,3,0a125.489,125.489,0,0,0,63.029-14.354c2.641-1.384,3.6-2.525,2.269-5.646-3.2-7.521-7.628-14.066-14.075-19.055-14.575-11.281-30.719-13.586-47.415-6.067C85.54,73.52,76.845,88.1,75.921,107.445c-.136,2.844,1.128,3.3,3.533,3.254,5.661-.116,11.327-.037,16.99-.035m318.421,0h11.494c10.087,0,10.087,0,8.738-10.169-2.671-20.145-19.321-36.315-39.914-38.763a46.137,46.137,0,0,0-47.734,28.023c-1.611,3.925-.7,5.244,2.77,7.027,20.333,10.452,41.9,14.843,64.646,13.882M230.855,224.125c.738,8.2-1.709,16.161,1.413,23.572,7.014,16.651,14.458,33.121,21.8,49.63.461,1.037.369,2.719,2.35,2.934,6.186-14.1,11.871-28.46,18.73-42.232,4.863-9.763,6.322-19.663,5.765-30.269-.165-3.128-.879-3.459-3.733-2.706a78.367,78.367,0,0,1-16.215,2.507,95.683,95.683,0,0,1-30.113-3.436m-19.972,5.846c0-3.546-.289-6.364.068-9.1.544-4.173-1.086-6.637-4.609-8.831-7.234-4.506-13.17-10.521-18.647-17.073-3.834-4.587-6.466-9.957-10.2-14.936a70.481,70.481,0,0,1-18.565,19.01c-1.946,1.332-2.991,12.9-1.388,14.331a4.542,4.542,0,0,0,1.839.728c17.187,4.582,35.134,6.585,51.5,15.868m123.354-50.12a90.476,90.476,0,0,1-31.784,34.52,3.028,3.028,0,0,0-1.617,2.83c.06,4.054.022,8.11.022,12.651,5.389-2.239,9.735-4.938,14.642-6.485,11.244-3.544,22.86-5.56,34.18-8.751,1.857-.524,5.167.287,5.008-2.679-.227-4.241,2.427-9.45-1.667-12.608a82.19,82.19,0,0,1-18.784-19.478M121.382,257.13l1.456.179c4.056-16.173,16.693-29.758,13.76-48.352a69.66,69.66,0,0,1-26.892.453c-1.169-.222-2.9-.913-2.753,1.388.284,4.6-.991,9.292.879,13.784q6.774,16.273,13.55,32.548m268.427,1.24c4.514-10.795,8.227-20.526,12.648-29.924,2.624-5.576,2.383-11.217,2.47-16.991.031-2.118-.811-2.473-2.683-2.109a66.316,66.316,0,0,1-24.749.034c-.96-.175-2.563-.958-2.531,1.044.072,4.458-1.116,9.14.51,13.333,4.358,11.24,9.193,22.3,14.335,34.613M191.414,242.42c-11.594-2.816-23.192-5.611-34.774-8.475-1.4-.347-2.534-.659-3.235,1.049-2.848,6.936-5.737,13.856-8.964,21.631,15.774-6.7,31.672-8.711,46.973-14.205m176.014,14.416c-3.246-7.87-6.018-14.59-8.789-21.31-.544-1.319-1.188-2.3-2.95-1.817-11.72,3.233-23.792,5.155-36.578,9.517,16.482,4.832,32.4,6.839,48.317,13.61" fill="#53abff"/>
    <path id="Path_63" data-name="Path 63" d="M287.762,396.412h-21.89c-.987-3.514-2.115-6.891-5.724-8.738-6.444-3.3-12.84.543-14.5,8.772l-25.847-.035c-2.562-8.2-4.986-9.993-13.645-10-12.327-.013-24.658-.151-36.981.087-3.63.071-4.37-1.1-4.318-4.489q.294-19.237.032-38.483c-.118-8.8-8.143-13.716-15.047-9.439-3.825,2.371-4.895,6.088-4.895,10.3,0,12.662-.116,25.325.079,37.984.052,3.326-.96,4.183-4.182,4.11-9.157-.208-18.323-.059-27.485-.087-1.553-.005-3.486.566-3.42-2.213.413-17.472-1.709-35.1.892-52.4,4.9-32.612,24.08-53.167,55.95-61.584,14.612-3.859,29.4-7.048,44.041-10.806,3.483-.894,4.789-.009,6.176,3.208,9.468,21.974,19.223,43.824,28.791,65.755,2.022,4.634,4.86,8.079,10.28,7.988,5.18-.087,7.914-3.5,9.848-7.914,9.593-21.92,19.318-43.783,28.81-65.747,1.287-2.977,2.583-4.046,5.852-3.224,16.109,4.052,32.376,7.516,48.378,11.946a72.02,72.02,0,0,1,52.658,67.157c.493,14.749.067,29.526.232,44.289.032,2.885-.875,3.663-3.675,3.614-9.16-.157-18.326-.186-27.485.013-3.057.067-3.959-.75-3.915-3.872q.268-19.238.04-38.483c-.093-8.98-7.58-14.208-14.6-10.347-4.105,2.259-5.395,6.026-5.376,10.51.053,12.495-.122,24.993.105,37.484.066,3.627-.716,4.813-4.588,4.739-13.822-.262-27.652-.119-41.479-.1-8.22.014-11.022,2.179-13.12,10" fill="#fdfdfd"/>
    <path id="Path_64" data-name="Path 64" d="M210.255,116.625a94.966,94.966,0,0,0,64.457-20.062,3.294,3.294,0,0,1,.421-.268c3.443-1.881,5.266-7.2,9.339-6.615,3.661.528,6.954,3.664,10.393,5.677,8.459,4.955,16.849,10.032,25.4,14.826,2.621,1.47,3.846,3.031,3.691,6.178-.565,11.457.782,22.963-.98,34.4-5.054,32.8-34.023,57.263-67.5,56.931a67.776,67.776,0,0,1-66.7-58.445c-1.372-9.964-.458-19.951-.835-29.92-.088-2.324.975-2.766,2.991-2.734,5.66.088,11.321.031,19.326.031M255.594,184.5a27.674,27.674,0,0,0,18.612-7.282c4.364-3.927,4.943-9.482,1.633-13.829-3.3-4.327-8.754-5.28-13.672-1.709-4.582,3.328-8.45,3.394-13.057-.01-4.9-3.619-10.3-2.628-13.666,1.744-3.418,4.435-2.634,9.982,2.036,14.116a27.658,27.658,0,0,0,18.114,6.97m43.42-48.975a10.067,10.067,0,0,0-10-9.721,10.288,10.288,0,0,0-9.72,10.123,10.054,10.054,0,0,0,10.117,9.64,9.8,9.8,0,0,0,9.6-10.042M222.336,145.57a9.831,9.831,0,0,0,9.837-9.822,9.8,9.8,0,1,0-19.6-.063,9.819,9.819,0,0,0,9.763,9.885" fill="#c5e5ff"/>
    <path id="Path_65" data-name="Path 65" d="M323.514,88.8c-10.941-6.418-21.5-12.608-32.055-18.805-10.068-5.91-12.541-5.485-20.614,2.966-14.227,14.891-31.711,22.728-52.272,23.427-8.979.306-17.976.045-26.964.155-2.316.028-3.458-.245-3.606-3.131-1.836-35.786,21.629-65.756,56.813-72.33,36.312-6.786,72.994,19.727,78.1,56.4.5,3.568,1.138,7.095.594,11.321" fill="#fdfdfd"/>
    <path id="Path_66" data-name="Path 66" d="M491.841,314.728c0,9-.148,18,.079,26.988.088,3.494-.484,5.281-4.522,4.8-5.059-.6-11.884,2.139-14.777-1.137-2.515-2.848-.794-9.5-.823-14.468-.053-9,.038-17.993-.033-26.989-.058-7.376-3.9-11.718-10.107-11.634-5.978.08-9.732,4.356-9.776,11.46-.077,12.662-.143,25.326.055,37.985.056,3.517-.536,5.023-4.537,4.825-7.312-.362-14.657-.2-21.984-.051-2.7.056-3.77-.57-3.772-3.545-.014-21.1-5.848-40.373-18.619-57.345a4.883,4.883,0,0,1-.666-5.477c6.179-14.54,12.241-29.129,18.315-43.713.73-1.752,1.157-3.223,3.839-2.515,10.766,2.844,21.764,4.9,32.381,8.192,21.366,6.632,34.477,24.666,34.917,47.134.166,8.494.027,16.993.03,25.49" fill="#fdfdfd"/>
    <path id="Path_67" data-name="Path 67" d="M19.994,314.742c0-7.826-.027-15.653.005-23.479.1-25.43,14.6-44.24,39.137-50.56,9.008-2.32,18.136-4.173,27.14-6.5,2.564-.663,3.723-.446,4.8,2.209q8.889,21.93,18.2,43.687a4.775,4.775,0,0,1-.7,5.424,91.2,91.2,0,0,0-18.541,57.253c.043,3.336-1.19,3.768-4.022,3.7-7.322-.172-14.656-.221-21.974.017-3.231.105-4.2-.773-4.142-4.086.205-12.152.082-24.31.081-36.465,0-1.166.056-2.336-.021-3.5-.416-6.236-4.366-10.257-10.015-10.237s-9.792,4.051-9.893,10.314c-.193,11.987-.063,23.978-.065,35.967,0,7.928,0,7.928-8.132,7.928-11.858,0-11.858,0-11.858-11.7V314.742" fill="#fdfdfd"/>
    <path id="Path_68" data-name="Path 68" d="M343.821,116.2c6.756,2.61,12.7,5.1,18.776,7.218,19.827,6.9,40.405,7.6,61.12,7.286,12.288-.185,12.284-.034,12.147,12.462-.168,15.388-5.757,28.273-18.126,37.671-13.834,10.511-29.318,12.624-45.216,6.057-15.658-6.468-25.236-18.545-27.84-35.592-1.746-11.431-.357-22.939-.861-35.1" fill="#c5e5ff"/>
    <path id="Path_69" data-name="Path 69" d="M168.029,116.774c-.936,14.294,2.165,28.909-3,42.9-6.746,18.286-20.163,28.757-39.459,30.427-18.289,1.583-32.59-6.185-42.674-21.529-7.17-10.91-7.217-23.243-6.988-35.637.05-2.725,1.818-2.253,3.419-2.257,7.331-.014,14.662-.042,21.992,0,21.41.121,42.006-3.714,61.588-12.552q1.813-.819,3.682-1.514c.268-.1.634.059,1.437.16" fill="#c5e5ff"/>
    <path id="Path_70" data-name="Path 70" d="M96.444,110.663c-5.664,0-11.329-.08-16.99.036-2.406.05-3.67-.41-3.534-3.253.925-19.343,9.62-33.926,27.33-41.9,16.7-7.519,32.841-5.213,47.416,6.067,6.446,4.99,10.873,11.535,14.074,19.055,1.329,3.121.373,4.263-2.268,5.647a125.516,125.516,0,0,1-63.03,14.354c-1-.03-2,0-3,0" fill="#fdfdfd"/>
    <path id="Path_71" data-name="Path 71" d="M414.864,110.664c-22.748.961-44.312-3.429-64.645-13.882-3.468-1.782-4.381-3.1-2.77-7.027a46.138,46.138,0,0,1,47.734-28.023c20.592,2.449,37.242,18.619,39.914,38.764,1.348,10.168,1.348,10.168-8.739,10.168H414.864" fill="#fdfdfd"/>
    <path id="Path_72" data-name="Path 72" d="M230.854,224.126a95.714,95.714,0,0,0,30.114,3.435,78.357,78.357,0,0,0,16.214-2.506c2.854-.754,3.568-.423,3.733,2.705.557,10.606-.9,20.507-5.765,30.27-6.859,13.771-12.544,28.128-18.73,42.232-1.98-.215-1.889-1.9-2.35-2.934-7.345-16.51-14.789-32.98-21.8-49.63-3.122-7.412-.675-15.373-1.413-23.572" fill="#c5e5ff"/>
    <path id="Path_73" data-name="Path 73" d="M121.382,257.13l-13.551-32.548c-1.869-4.491-.6-9.189-.879-13.784-.142-2.3,1.585-1.61,2.754-1.388a69.679,69.679,0,0,0,26.892-.452c2.932,18.593-9.7,32.178-13.76,48.352l-1.456-.18" fill="#c5e5ff"/>
    <path id="Path_74" data-name="Path 74" d="M389.808,258.37c-5.141-12.316-9.976-23.372-14.335-34.613-1.625-4.193-.437-8.875-.509-13.332-.032-2,1.571-1.22,2.53-1.044a66.322,66.322,0,0,0,24.75-.035c1.872-.363,2.714-.008,2.682,2.11-.086,5.774.154,11.414-2.469,16.99-4.422,9.4-8.135,19.13-12.649,29.924" fill="#c5e5ff"/>
    <path id="Path_75" data-name="Path 75" d="M191.413,242.42c-15.3,5.494-31.2,7.5-46.972,14.205,3.226-7.775,6.116-14.7,8.963-21.631.7-1.708,1.832-1.4,3.236-1.049,11.581,2.864,23.18,5.659,34.773,8.475" fill="#fdfdfd"/>
    <path id="Path_76" data-name="Path 76" d="M367.428,256.836c-15.916-6.771-31.835-8.778-48.317-13.61,12.786-4.362,24.858-6.284,36.578-9.517,1.762-.486,2.406.5,2.95,1.817,2.771,6.72,5.543,13.44,8.789,21.31" fill="#fdfdfd"/>
    <path id="Path_77" data-name="Path 77" d="M255.6,184.5a27.654,27.654,0,0,1-18.114-6.97c-4.67-4.134-5.454-9.681-2.036-14.116,3.369-4.372,8.767-5.363,13.666-1.743,4.607,3.4,8.474,3.338,13.057.01,4.918-3.571,10.375-2.619,13.671,1.708,3.311,4.347,2.731,9.9-1.632,13.829A27.671,27.671,0,0,1,255.6,184.5" fill="#53abff"/>
    <path id="Path_78" data-name="Path 78" d="M299.014,135.521a9.8,9.8,0,0,1-9.6,10.042,10.054,10.054,0,0,1-10.117-9.64,10.288,10.288,0,0,1,9.72-10.124,10.068,10.068,0,0,1,10,9.722" fill="#53abff"/>
    <path id="Path_79" data-name="Path 79" d="M222.336,145.57a9.819,9.819,0,0,1-9.763-9.885,9.8,9.8,0,1,1,19.6.063,9.831,9.831,0,0,1-9.837,9.822" fill="#53abff"/>
  </g>
</svg>
