<svg xmlns="http://www.w3.org/2000/svg" xmlns:xlink="http://www.w3.org/1999/xlink" width="39.858" height="38.276" viewBox="0 0 39.858 38.276">
  <defs>
    <clipPath id="clip-path">
      <rect id="Rectangle_29" data-name="Rectangle 29" width="39.858" height="38.276" fill="#3c97f2"/>
    </clipPath>
  </defs>
  <g id="Group_44" data-name="Group 44" clip-path="url(#clip-path)">
    <path id="Path_24" data-name="Path 24" d="M35.5,46.284H2.024C.416,45.769,0,45.192,0,43.482Q0,31.418,0,19.353a2.284,2.284,0,0,1,2.514-2.5H35.045a2.259,2.259,0,0,1,2.507,2.5q0,2.7,0,5.409c0,.136-.013.273-.02.432h-.466q-6.323,0-12.646,0a3.8,3.8,0,0,0-3.939,3.843c-.026,1.673-.035,3.348.014,5.02a3.951,3.951,0,0,0,.387,1.564,3.682,3.682,0,0,0,3.539,2.161c4.215.014,8.431,0,12.646,0h.446a1.012,1.012,0,0,1,.036.162q0,3.054,0,6.11a2.191,2.191,0,0,1-.562,1.454,2.616,2.616,0,0,1-1.485.772" transform="translate(0 -8.008)" fill="#3c97f2"/>
    <path id="Path_25" data-name="Path 25" d="M59.808,43.332a2.338,2.338,0,0,1-1.363,1.635,3.365,3.365,0,0,1-1.1.2q-6.441.02-12.882.007a2.282,2.282,0,0,1-2.481-2.5q0-2.238,0-4.476a2.284,2.284,0,0,1,2.5-2.486q6.266,0,12.532,0c1.648,0,2.175.352,2.792,1.863Zm-13.883-2.9c0,.87.131,1.231.6,1.43a2.18,2.18,0,0,0,1.769,0c.593-.262.616-.823.618-1.39,0-.551-.072-1.077-.626-1.307a2.194,2.194,0,0,0-1.77.019,1.128,1.128,0,0,0-.59,1.246" transform="translate(-19.95 -16.968)" fill="#3c97f2"/>
    <path id="Path_26" data-name="Path 26" d="M46.226,10.044H27.861a2.911,2.911,0,0,1,.3-.124q7.25-1.983,14.5-3.96a2.226,2.226,0,0,1,2.9,1.664c.227.795.437,1.593.663,2.42" transform="translate(-13.239 -2.782)" fill="#3c97f2"/>
    <path id="Path_27" data-name="Path 27" d="M31.816,2.934c-.954.263-1.861.515-2.769.764-4.259,1.164-8.513,2.348-12.783,3.469a12.06,12.06,0,0,1-2.307.158l-.03-.1c.09-.055.176-.117.269-.163Q21,3.684,27.807.311a2.254,2.254,0,0,1,3.254,1.095c.249.493.49.991.755,1.528" transform="translate(-6.618 0)" fill="#3c97f2"/>
  </g>
</svg>
