<svg xmlns="http://www.w3.org/2000/svg" xmlns:xlink="http://www.w3.org/1999/xlink" width="20.477" height="19.998" viewBox="0 0 20.477 19.998">
  <defs>
    <clipPath id="clip-path">
      <rect id="Rectangle_29" data-name="Rectangle 29" width="20.476" height="19.997" fill="#727272"/>
    </clipPath>
  </defs>
  <g id="Group_44" data-name="Group 44" clip-path="url(#clip-path)">
    <path id="Path_24" data-name="Path 24" d="M18.236,32.228H1.04C.214,31.959,0,31.658,0,30.764q0-6.3,0-12.606a1.183,1.183,0,0,1,1.292-1.307H18a1.17,1.17,0,0,1,1.288,1.306q0,1.413,0,2.826c0,.071-.006.143-.011.226h-.239q-3.248,0-6.5,0a1.969,1.969,0,0,0-2.024,2.008c-.013.874-.018,1.749.007,2.623a2.092,2.092,0,0,0,.2.817,1.888,1.888,0,0,0,1.818,1.129c2.166.007,4.331,0,6.5,0h.229a.537.537,0,0,1,.018.084q0,1.6,0,3.192a1.156,1.156,0,0,1-.288.759,1.337,1.337,0,0,1-.763.4" transform="translate(0 -12.231)" fill="#727272"/>
    <path id="Path_25" data-name="Path 25" d="M51.14,39.691a1.217,1.217,0,0,1-.7.854,1.7,1.7,0,0,1-.564.1q-3.309.01-6.618,0a1.183,1.183,0,0,1-1.274-1.308q0-1.169,0-2.339a1.183,1.183,0,0,1,1.284-1.3h6.438a1.231,1.231,0,0,1,1.434.973Zm-7.132-1.516c0,.454.067.643.307.747a1.1,1.1,0,0,0,.909,0c.3-.137.316-.43.318-.726s-.037-.563-.322-.683a1.11,1.11,0,0,0-.909.01.592.592,0,0,0-.3.651" transform="translate(-30.664 -25.917)" fill="#727272"/>
    <path id="Path_26" data-name="Path 26" d="M37.3,8.044H27.861a1.482,1.482,0,0,1,.153-.065q3.724-1.036,7.449-2.069a1.142,1.142,0,0,1,1.491.869c.116.415.225.832.341,1.264" transform="translate(-20.349 -4.25)" fill="#727272"/>
    <path id="Path_27" data-name="Path 27" d="M23.117,1.533c-.49.137-.956.269-1.423.4-2.188.608-4.373,1.227-6.567,1.812a6.094,6.094,0,0,1-1.185.083l-.015-.053c.046-.029.09-.061.138-.085q3.5-1.764,6.993-3.525A1.15,1.15,0,0,1,22.73.735c.128.258.252.518.388.8" transform="translate(-10.172 0)" fill="#727272"/>
  </g>
</svg>
