<svg xmlns="http://www.w3.org/2000/svg" width="62.519" height="62.519" viewBox="0 0 62.519 62.519">
  <path id="Path_26668" data-name="Path 26668" d="M-2.929,30.7A3.547,3.547,0,0,0-4,28.1l-7.968-7.968a3.547,3.547,0,0,0-2.6-1.073,3.648,3.648,0,0,0-2.758,1.226q.115.115.728.709t.824.824a9.125,9.125,0,0,1,.575.728,3.081,3.081,0,0,1,.5.977,3.9,3.9,0,0,1,.134,1.053,3.547,3.547,0,0,1-1.073,2.6,3.547,3.547,0,0,1-2.6,1.073,3.9,3.9,0,0,1-1.053-.134,3.081,3.081,0,0,1-.977-.5,9.122,9.122,0,0,1-.728-.575q-.23-.211-.824-.824t-.709-.728a3.717,3.717,0,0,0-1.264,2.8,3.547,3.547,0,0,0,1.073,2.6l7.892,7.93a3.532,3.532,0,0,0,2.6,1.034,3.689,3.689,0,0,0,2.6-1L-4,33.269A3.5,3.5,0,0,0-2.929,30.7ZM-29.859,3.695a3.547,3.547,0,0,0-1.073-2.6l-7.891-7.93a3.547,3.547,0,0,0-2.6-1.073,3.7,3.7,0,0,0-2.6,1.034l-5.631,5.593a3.5,3.5,0,0,0-1.073,2.567,3.547,3.547,0,0,0,1.073,2.6l7.968,7.968a3.532,3.532,0,0,0,2.6,1.034A3.7,3.7,0,0,0-36.333,11.7q-.115-.115-.728-.709t-.824-.824a9.12,9.12,0,0,1-.575-.728,3.081,3.081,0,0,1-.5-.977,3.9,3.9,0,0,1-.134-1.053,3.547,3.547,0,0,1,1.073-2.6,3.547,3.547,0,0,1,2.6-1.073,3.9,3.9,0,0,1,1.053.134,3.081,3.081,0,0,1,.977.5,9.128,9.128,0,0,1,.728.575q.23.211.824.824t.709.728A3.717,3.717,0,0,0-29.859,3.695ZM1.209,22.887A10.64,10.64,0,0,1,4.427,30.7,10.452,10.452,0,0,1,1.17,38.479l-5.631,5.593a10.577,10.577,0,0,1-7.777,3.18A10.5,10.5,0,0,1-20.052,44l-7.891-7.93a10.577,10.577,0,0,1-3.18-7.777,10.775,10.775,0,0,1,3.371-8.006l-3.371-3.371a10.732,10.732,0,0,1-7.968,3.371,10.64,10.64,0,0,1-7.815-3.218L-54.875,9.1a10.64,10.64,0,0,1-3.218-7.815A10.452,10.452,0,0,1-54.836-6.5l5.631-5.593a10.578,10.578,0,0,1,7.777-3.18,10.5,10.5,0,0,1,7.815,3.256l7.892,7.93a10.577,10.577,0,0,1,3.18,7.777A10.775,10.775,0,0,1-25.913,11.7l3.371,3.371A10.732,10.732,0,0,1-14.574,11.7a10.64,10.64,0,0,1,7.815,3.218Z" transform="translate(58.092 15.268)" fill="#3c97f2"/>
</svg>
