<svg id="Group_63481" data-name="Group 63481" xmlns="http://www.w3.org/2000/svg" xmlns:xlink="http://www.w3.org/1999/xlink" width="83.974" height="88.467" viewBox="0 0 83.974 88.467">
  <defs>
    <clipPath id="clip-path">
      <rect id="Rectangle_4389" data-name="Rectangle 4389" width="83.975" height="88.467" fill="#fff"/>
    </clipPath>
  </defs>
  <g id="Group_63359" data-name="Group 63359" clip-path="url(#clip-path)">
    <path id="Path_25737" data-name="Path 25737" d="M0,49.774c.165-1.742.27-3.492.5-5.224A40.039,40.039,0,0,1,9.724,23.781,40.445,40.445,0,0,1,33.036,9.815,40.368,40.368,0,0,1,58.643,12.78c.076.035.145.086.3.18l-4.728,7.6c-1.6-.512-3.134-1.071-4.706-1.495a31.271,31.271,0,0,0-17.042.206,31.686,31.686,0,0,0-14.187,8.521,32.167,32.167,0,0,0-6.26,35.749A31.821,31.821,0,0,0,25.756,78.458a32.282,32.282,0,0,0,30.458.447A31.928,31.928,0,0,0,70,65.171,31.365,31.365,0,0,0,73.59,48.428c-.1-1.771-.524-3.522-.73-5.29a2.557,2.557,0,0,1,.237-1.512c1.658-2.762,3.382-5.484,5.087-8.219.149-.239.312-.47.516-.776a39.226,39.226,0,0,1,3.191,9.528A41.246,41.246,0,0,1,57.649,88.252a39.1,39.1,0,0,1-13.007,3.189,5.958,5.958,0,0,0-.754.148H38.877c-1.08-.133-2.164-.243-3.239-.4A40.806,40.806,0,0,1,11.019,78.215,40.161,40.161,0,0,1,.492,55.869C.258,54.135.161,52.382,0,50.638v-.864" transform="translate(0 -3.122)" fill="#fff"/>
    <path id="Path_25738" data-name="Path 25738" d="M92.709,7.43c-.133,2.853-1.8,5.028-3.224,7.312Q72.633,41.82,55.789,68.9a7.622,7.622,0,0,1-6.2,3.971,7.4,7.4,0,0,1-6.839-3.436q-4.456-6.366-8.924-12.724Q30.2,51.552,26.589,46.39a7.526,7.526,0,0,1,11.333-9.875,15.272,15.272,0,0,1,1.187,1.48q4.5,6.39,8.977,12.793c.2.28.4.557.636.889.222-.342.414-.621.593-.909Q63.52,27.939,77.7,5.1c1.585-2.564,3.43-4.59,6.541-5.1h1.9a2.8,2.8,0,0,0,.391.16,7.4,7.4,0,0,1,6.033,6.7,1.985,1.985,0,0,0,.142.4Z" transform="translate(-8.734)" fill="#fff"/>
  </g>
</svg>
