<svg xmlns="http://www.w3.org/2000/svg" width="77.085" height="61.629" viewBox="0 0 77.085 61.629">
  <g id="Group_63105" data-name="Group 63105" transform="translate(-15.393 0)">
    <g id="Group_63117" data-name="Group 63117">
      <path id="Path_25644" data-name="Path 25644" d="M123.6,61.626q-14.269,0-28.537,0a9.57,9.57,0,0,1-9.75-7.611,11.773,11.773,0,0,1-.236-2.509q-.021-20.677-.007-41.353C85.07,4.126,89.208,0,95.226,0q28.4,0,56.8,0c5.978,0,10.111,4.119,10.113,10.086q.008,20.812,0,41.624a9.589,9.589,0,0,1-8.029,9.771,13.424,13.424,0,0,1-2.338.137q-14.088.013-28.176.005M92.787,45.934c.367-.341.606-.549.83-.773,3.215-3.211,6.415-6.437,9.645-9.632a6.729,6.729,0,0,1,9.835-.041c.953.918,1.885,1.86,2.811,2.806.557.569,1.083,1.168,1.665,1.8l4.657-5.585q4.8-5.754,9.6-11.505a6.551,6.551,0,0,1,6.76-2.4,6.937,6.937,0,0,1,3.9,2.435q5.625,6.591,11.273,13.163a3.952,3.952,0,0,1,.381.674l.247-.214c.011-.237.031-.473.031-.71q0-12.908,0-25.816c0-1.8-.624-2.407-2.466-2.408q-28.349,0-56.7,0c-1.86,0-2.469.623-2.47,2.506q0,17.331,0,34.663Z" transform="translate(-69.668 -0.001)" fill="#3c97f2"/>
      <path id="Path_25645" data-name="Path 25645" d="M127.749,80.876V79.833q0-17.331,0-34.663c0-1.883.609-2.506,2.469-2.506q28.349,0,56.7,0c1.842,0,2.465.605,2.466,2.407q.005,12.908,0,25.817c0,.237-.02.473-.031.71l-.247.214a3.952,3.952,0,0,0-.381-.674q-5.631-6.586-11.273-13.163a6.938,6.938,0,0,0-3.9-2.435,6.551,6.551,0,0,0-6.76,2.4q-4.817,5.737-9.6,11.505l-4.657,5.585c-.582-.631-1.108-1.229-1.665-1.8-.926-.946-1.858-1.887-2.811-2.806a6.729,6.729,0,0,0-9.835.041c-3.231,3.2-6.43,6.421-9.645,9.632-.224.223-.463.432-.83.773m11.586-18.989a7.692,7.692,0,1,0-7.741-7.636,7.711,7.711,0,0,0,7.741,7.636" transform="translate(-104.631 -34.943)" fill="#d9ecff"/>
      <path id="Path_25646" data-name="Path 25646" d="M156.733,79.261a7.692,7.692,0,1,1,7.685-7.691,7.712,7.712,0,0,1-7.685,7.691" transform="translate(-122.028 -52.316)" fill="#3c97f2"/>
    </g>
  </g>
</svg>
