<svg id="Group_105488" data-name="Group 105488" xmlns="http://www.w3.org/2000/svg" width="12.542" height="12.542" viewBox="0 0 12.542 12.542">
  <path id="close" d="M8.341,6.272l3.88-3.88a1.1,1.1,0,0,0,0-1.552L11.7.322a1.1,1.1,0,0,0-1.552,0L6.272,4.2,2.391.322A1.1,1.1,0,0,0,.84.322L.322.839a1.1,1.1,0,0,0,0,1.552L4.2,6.272l-3.88,3.88a1.1,1.1,0,0,0,0,1.552l.517.517a1.1,1.1,0,0,0,1.552,0l3.88-3.88,3.88,3.88a1.1,1.1,0,0,0,1.552,0l.517-.517a1.1,1.1,0,0,0,0-1.552Zm0,0" transform="translate(0 0)" fill="#1580FC"/>
</svg>
