<svg xmlns="http://www.w3.org/2000/svg" width="175.714" height="175.714" viewBox="0 0 175.714 175.714">
  <path id="Path_26667" data-name="Path 26667" d="M59.029-91.747a7.126,7.126,0,0,0-2.059-5.262L46.56-107.3a7.036,7.036,0,0,0-5.148-2.174,7.036,7.036,0,0,0-5.148,2.174L-10.41-60.745-36.264-86.6a7.036,7.036,0,0,0-5.148-2.174A7.036,7.036,0,0,0-46.56-86.6L-56.97-76.3a7.126,7.126,0,0,0-2.059,5.262,6.984,6.984,0,0,0,2.059,5.148l41.412,41.412a7.036,7.036,0,0,0,5.148,2.174,7.167,7.167,0,0,0,5.262-2.174L56.97-86.6A6.984,6.984,0,0,0,59.029-91.747Zm17.045-25.511A85.64,85.64,0,0,1,87.857-73.214a85.944,85.944,0,0,1-11.783,44.1A87.462,87.462,0,0,1,44.1,2.86,85.945,85.945,0,0,1,0,14.643,85.944,85.944,0,0,1-44.1,2.86,87.462,87.462,0,0,1-76.074-29.114a85.945,85.945,0,0,1-11.783-44.1,85.945,85.945,0,0,1,11.783-44.1A87.463,87.463,0,0,1-44.1-149.289,85.945,85.945,0,0,1,0-161.071a85.945,85.945,0,0,1,44.1,11.783A87.33,87.33,0,0,1,76.074-117.257Z" transform="translate(87.857 161.071)" fill="#3c97f2"/>
</svg>
