<svg xmlns="http://www.w3.org/2000/svg" width="15.429" height="15.429" viewBox="0 0 15.429 15.429">
  <path id="Path_25654" data-name="Path 25654" d="M11.541-4.158a.618.618,0,0,0-.191-.452L9.532-6.429,11.35-8.247a.618.618,0,0,0,.191-.452.629.629,0,0,0-.191-.462l-.9-.9a.629.629,0,0,0-.462-.191.618.618,0,0,0-.452.191L7.714-8.247,5.9-10.065a.618.618,0,0,0-.452-.191.629.629,0,0,0-.462.191l-.9.9a.629.629,0,0,0-.191.462.618.618,0,0,0,.191.452L5.9-6.429,4.078-4.61a.618.618,0,0,0-.191.452.629.629,0,0,0,.191.462l.9.9a.629.629,0,0,0,.462.191A.618.618,0,0,0,5.9-2.792L7.714-4.61,9.532-2.792a.618.618,0,0,0,.452.191.629.629,0,0,0,.462-.191l.9-.9A.629.629,0,0,0,11.541-4.158ZM14.394-10.3a7.52,7.52,0,0,1,1.035,3.867,7.546,7.546,0,0,1-1.035,3.872A7.68,7.68,0,0,1,11.586.251,7.546,7.546,0,0,1,7.714,1.286,7.546,7.546,0,0,1,3.842.251,7.68,7.68,0,0,1,1.035-2.556,7.546,7.546,0,0,1,0-6.429,7.546,7.546,0,0,1,1.035-10.3a7.68,7.68,0,0,1,2.807-2.807,7.546,7.546,0,0,1,3.872-1.035,7.546,7.546,0,0,1,3.872,1.035A7.668,7.668,0,0,1,14.394-10.3Z" transform="translate(0 14.143)" fill="#162c5b"/>
</svg>
