<svg xmlns="http://www.w3.org/2000/svg" xmlns:xlink="http://www.w3.org/1999/xlink" width="40" height="40" viewBox="0 0 40 40">
  <defs>
    <clipPath id="clip-path">
      <rect id="Rectangle_3946" data-name="Rectangle 3946" width="20.822" height="15.61" fill="#3c97f2"/>
    </clipPath>
  </defs>
  <g id="Group_3435" data-name="Group 3435" transform="translate(-9385 -6281)">
    <circle id="Ellipse_258" data-name="Ellipse 258" cx="20" cy="20" r="20" transform="translate(9385 6281)" fill="#c1defb61"/>
    <g id="Group_3429" data-name="Group 3429" transform="translate(9395 6293.16)">
      <g id="Group_3428" data-name="Group 3428" transform="translate(0 0)" clip-path="url(#clip-path)">
        <path id="Path_1131" data-name="Path 1131" d="M20.823,31.167a.861.861,0,0,1-.174.036q-3.119,0-6.237,0a.866.866,0,0,1-.1-.014V27.183c-.113.063-.181.1-.248.14-.973.582-1.95,1.156-2.915,1.751a1.322,1.322,0,0,1-1.5-.005c-.956-.58-1.917-1.152-2.876-1.726-.077-.046-.156-.089-.266-.152v4H.026A.733.733,0,0,1,0,31.059c0-1.735-.018-3.47.02-5.2a3.175,3.175,0,0,1,4.525-2.784c.487.229.949.513,1.415.785q2.128,1.243,4.248,2.5a.326.326,0,0,0,.387,0q2.6-1.54,5.212-3.067a3.246,3.246,0,0,1,3.971.342,3.132,3.132,0,0,1,1,2.041c.007.067.026.132.039.2Z" transform="translate(0 -15.595)" fill="#3c97f2"/>
        <path id="Path_1132" data-name="Path 1132" d="M28.876,0a5.315,5.315,0,0,1,.811.261,1.9,1.9,0,0,1,.987,2.189,1.948,1.948,0,0,1-3.794-.08A1.956,1.956,0,0,1,28.571.039.644.644,0,0,0,28.694,0Z" transform="translate(-18.384 0)" fill="#3c97f2"/>
        <path id="Path_1133" data-name="Path 1133" d="M23.178,19.065a3.27,3.27,0,0,1,3.4-2.259,3.182,3.182,0,0,1,2.8,2.268c-.809.473-1.622.949-2.436,1.421-.222.129-.45.34-.677.342s-.437-.218-.653-.344l-2.246-1.312c-.065-.038-.128-.078-.19-.116" transform="translate(-15.878 -11.507)" fill="#3c97f2"/>
        <path id="Path_1134" data-name="Path 1134" d="M6.064,10.154A1.949,1.949,0,1,1,8.036,8.28a1.962,1.962,0,0,1-1.972,1.873" transform="translate(-2.839 -4.287)" fill="#3c97f2"/>
        <path id="Path_1135" data-name="Path 1135" d="M53.446,8.21A1.946,1.946,0,1,1,51.5,6.26a1.956,1.956,0,0,1,1.941,1.95" transform="translate(-33.946 -4.288)" fill="#3c97f2"/>
      </g>
    </g>
  </g>
</svg>
