<svg xmlns="http://www.w3.org/2000/svg" xmlns:xlink="http://www.w3.org/1999/xlink" width="40" height="40" viewBox="0 0 40 40">
  <defs>
    <clipPath id="clip-path">
      <rect id="Rectangle_3944" data-name="Rectangle 3944" width="17.625" height="17.624" transform="translate(0 0)" fill="#3c97f2"/>
    </clipPath>
  </defs>
  <g id="Group_3434" data-name="Group 3434" transform="translate(-9274 -6281)">
    <g id="Group_3424" data-name="Group 3424" transform="translate(-179 120)">
      <circle id="Ellipse_257" data-name="Ellipse 257" cx="20" cy="20" r="20" transform="translate(9453 6161)" fill="#c1defb61"/>
      <g id="Group_3423" data-name="Group 3423" transform="translate(9465 6173)">
        <g id="Group_3422" data-name="Group 3422" transform="translate(0 0)" clip-path="url(#clip-path)">
          <path id="Path_1126" data-name="Path 1126" d="M2.574,0h8.534a.709.709,0,0,0,.107.037A2.918,2.918,0,0,1,13.707,2.92q.027,3.933,0,7.865A2.9,2.9,0,0,1,10.8,13.7q-3.944.037-7.888,0A2.921,2.921,0,0,1,.007,10.79C0,8.16-.006,5.531.011,2.9A2.75,2.75,0,0,1,1.413.451,7.05,7.05,0,0,1,2.574,0m3.3,7.833c0,.358-.007.679,0,1a.979.979,0,0,0,1.957-.045c.009-.31,0-.621,0-.953.335,0,.639.006.943,0A.98.98,0,1,0,8.8,5.874c-.317,0-.635,0-.962,0,0-.334,0-.632,0-.93a.974.974,0,0,0-.459-.872.977.977,0,0,0-1.5.795c-.011.333,0,.666,0,1.007-.341,0-.646,0-.951,0a.979.979,0,1,0-.035,1.957c.319.014.639,0,.986,0" transform="translate(0 0)" fill="#3c97f2"/>
          <path id="Path_1127" data-name="Path 1127" d="M27.39,22.916c-.044.223-.083.447-.134.669a4.869,4.869,0,0,1-4.682,3.777c-2.951.016-5.9.006-8.852,0a.979.979,0,1,1,0-1.958c.848-.009,1.7,0,2.546,0,2.064,0,4.128,0,6.192,0a2.911,2.911,0,0,0,2.939-2.474,3.627,3.627,0,0,0,.034-.617q0-4.243,0-8.485a1.689,1.689,0,0,1,.057-.474.958.958,0,0,1,.872-.667.976.976,0,0,1,.94.571c.031.069.06.138.09.207Z" transform="translate(-9.765 -9.747)" fill="#3c97f2"/>
        </g>
      </g>
    </g>
  </g>
</svg>
