<svg xmlns="http://www.w3.org/2000/svg" width="40" height="40" viewBox="0 0 40 40">
  <g id="Group_3433" data-name="Group 3433" transform="translate(-9218 -6281)">
    <g id="Group_3421" data-name="Group 3421" transform="translate(-179 120)">
      <circle id="Ellipse_257" data-name="Ellipse 257" cx="20" cy="20" r="20" transform="translate(9397 6161)" fill="#fff"/>
      <path id="Path_1125" data-name="Path 1125" d="M26.316,43.346c.072-.294.119-.6.22-.88q1.675-4.716,3.364-9.428A4.627,4.627,0,0,1,32.8,30.1q4.78-1.718,9.566-3.418a2.326,2.326,0,0,1,3.179,2.348,2.872,2.872,0,0,1-.181.778q-1.662,4.682-3.336,9.36a4.685,4.685,0,0,1-2.948,2.991q-4.746,1.7-9.5,3.393a2.386,2.386,0,0,1-3.267-2.2M38.3,36.12a2.343,2.343,0,1,0-2.353,2.342A2.347,2.347,0,0,0,38.3,36.12" transform="translate(9380.684 6144.474)" fill="#3c97f2"/>
    </g>
  </g>
</svg>
