<svg xmlns="http://www.w3.org/2000/svg" xmlns:xlink="http://www.w3.org/1999/xlink" width="57" height="57" viewBox="0 0 57 57">
  <defs>
    <clipPath id="clip-path">
      <rect id="Rectangle_4429" data-name="Rectangle 4429" width="25.684" height="25.679" fill="#fff"/>
    </clipPath>
  </defs>
  <g id="Group_63490" data-name="Group 63490" transform="translate(-1208 -310)">
    <circle id="Ellipse_317" data-name="Ellipse 317" cx="28.5" cy="28.5" r="28.5" transform="translate(1208 310)" fill="#3c97f2"/>
    <g id="Group_63518" data-name="Group 63518" transform="translate(1223.566 325.567)">
      <g id="Group_63476" data-name="Group 63476" clip-path="url(#clip-path)">
        <path id="Path_26666" data-name="Path 26666" d="M0,25.578C.151,24.886.306,24.2.451,23.5c.421-2.017.837-4.036,1.261-6.052a.584.584,0,0,1,.16-.271Q9.943,9.1,18.02,1.029A3.429,3.429,0,0,1,19.95.045.543.543,0,0,0,20.062,0h.853c.161.038.323.072.483.115a3.451,3.451,0,0,1,1.568.9c.562.561,1.128,1.117,1.683,1.685a3.493,3.493,0,0,1,0,4.959c-.7.718-1.416,1.42-2.125,2.129Q15.571,16.743,8.616,23.7a1.081,1.081,0,0,1-.576.314Q4.019,24.842,0,25.679v-.1M15.052,6.22,3.766,17.5,5.39,19.127,16.673,7.845,15.052,6.22M6.546,20.265,8.2,21.922,19.468,10.656l-1.662-1.65L6.546,20.265m16.143-12.8M1.941,23.74l4.784-1-3.79-3.79L1.941,23.74m19.6-15.162L17.1,4.127l-.953.954,4.446,4.445.95-.949" fill="#fff"/>
      </g>
    </g>
  </g>
</svg>
