<svg xmlns="http://www.w3.org/2000/svg" width="37.021" height="35.49" viewBox="0 0 37.021 35.49">
  <g id="_353430_checkbox_pen_edit_pencil_icon" data-name="353430_checkbox_pen_edit_pencil_icon" transform="translate(-7.586 -8.597)">
    <path id="Path_25256" data-name="Path 25256" d="M53.044,12.418,49.732,9.11a1.755,1.755,0,0,0-2.48,0L44.6,11.751,50.4,17.533l2.649-2.641A1.748,1.748,0,0,0,53.044,12.418Z" transform="translate(-8.95)" fill="#000"/>
    <path id="Path_25257" data-name="Path 25257" d="M21.922,30.317,27.715,36.1,43.671,20.173,37.879,14.39Z" transform="translate(-3.466 -1.401)" fill="#000"/>
    <path id="Path_25258" data-name="Path 25258" d="M19.879,37.028l-1.237,7.015,7.029-1.233Z" transform="translate(-2.673 -6.874)" fill="#000"/>
    <path id="Path_25259" data-name="Path 25259" d="M33.219,42.229H11.378V20.388H26.792l3.8-3.791H10.038a2.459,2.459,0,0,0-2.452,2.452v24.52a2.459,2.459,0,0,0,2.452,2.452h24.52a2.459,2.459,0,0,0,2.452-2.452V26.038l-3.791,3.784Z" transform="translate(0 -1.934)" fill="#000"/>
  </g>
</svg>
