<svg xmlns="http://www.w3.org/2000/svg" width="34.087" height="39.189" viewBox="0 0 34.087 39.189">
  <g id="Group_63233" data-name="Group 63233" transform="translate(-5429 19652.826)">
    <path id="Path_11" data-name="Path 11" d="M17.213.5l4.108,2.524L18.983,4.287l-1.77-.928L2.623,11.909V21.5L14.4,28.566l-2.426,1.311L0,22.625V10.56Z" transform="translate(5429 -19653.326)" fill="#3c97f2"/>
    <path id="Path_12" data-name="Path 12" d="M21.583,3.265,4.469,12.955v6.831l2.289,1.3V14.217L21.583,6.075l8.043,4.541v1.819L32.2,13.845V9.255Z" transform="translate(5430.57 -19652.354)" fill="#3c97f2"/>
    <path id="Path_13" data-name="Path 13" d="M13.555,37.135,9.447,34.611l2.338-1.264,1.77.942,14.6-8.564V16.135L16.365,9.082,18.8,7.771l11.965,7.25V27.086Z" transform="translate(5432.319 -19650.771)" fill="#3c97f2"/>
    <path id="Path_14" data-name="Path 14" d="M10.855,31.368l17.126-9.677v-6.83l-2.289-1.312v6.868L10.855,28.558,2.812,24.018V22.2L.239,20.8v4.578Z" transform="translate(5429.084 -19648.74)" fill="#3c97f2"/>
  </g>
</svg>
