<?xml version="1.0" standalone="no"?>
<!DOCTYPE svg PUBLIC "-//W3C//DTD SVG 20010904//EN"
 "http://www.w3.org/TR/2001/REC-SVG-20010904/DTD/svg10.dtd">
<svg version="1.0" xmlns="http://www.w3.org/2000/svg"
 width="512.000000pt" height="512.000000pt" viewBox="0 0 512.000000 512.000000"
 preserveAspectRatio="xMidYMid meet">

<g transform="translate(0.000000,512.000000) scale(0.100000,-0.100000)"
fill="#fff" stroke="none">
<path d="M3906 5101 c-16 -11 -38 -33 -49 -51 -41 -64 2 -158 82 -180 21 -6
186 -10 386 -10 l350 0 -667 -667 c-589 -590 -667 -672 -673 -705 -19 -101 56
-174 157 -153 27 6 159 133 701 673 l667 667 0 -350 c0 -200 4 -365 10 -386
23 -81 115 -122 182 -81 71 44 68 19 68 624 0 515 -1 544 -19 572 -10 15 -32
37 -47 47 -28 18 -57 19 -574 19 -520 0 -546 -1 -574 -19z"/>
<path d="M1605 1775 c-16 -9 -326 -312 -687 -673 l-658 -657 0 350 c0 200 -4
365 -10 386 -22 79 -114 122 -180 83 -17 -11 -40 -33 -51 -50 -18 -30 -19 -55
-19 -575 0 -516 1 -545 19 -573 10 -15 32 -37 47 -47 28 -18 57 -19 573 -19
520 0 545 1 575 19 17 11 39 34 50 51 39 66 -4 158 -83 180 -21 6 -186 10
-386 10 l-350 0 667 668 c715 716 691 688 673 770 -15 71 -113 113 -180 77z"/>
</g>
</svg>
