<?xml version="1.0" standalone="no"?>
<!DOCTYPE svg PUBLIC "-//W3C//DTD SVG 20010904//EN"
 "http://www.w3.org/TR/2001/REC-SVG-20010904/DTD/svg10.dtd">
<svg version="1.0" xmlns="http://www.w3.org/2000/svg"
 width="512.000000pt" height="512.000000pt" viewBox="0 0 512.000000 512.000000"
 preserveAspectRatio="xMidYMid meet">

<g transform="translate(0.000000,512.000000) scale(0.100000,-0.100000)"
fill="#fff" stroke="none">
<path d="M4820 5099 c-35 -15 -225 -200 -832 -807 l-788 -787 0 500 c0 322 -4
514 -11 538 -6 21 -26 56 -45 77 -98 108 -272 87 -344 -40 l-25 -45 -3 -770
c-2 -562 0 -785 8 -824 17 -77 84 -144 161 -161 39 -8 262 -10 824 -8 l770 3
45 25 c127 72 148 246 40 344 -21 19 -56 39 -77 45 -24 7 -216 11 -538 11
l-500 0 787 788 c830 830 827 827 828 917 0 44 -36 131 -66 157 -33 29 -107
58 -149 58 -22 0 -60 -10 -85 -21z"/>
<path d="M593 2340 c-165 -39 -219 -250 -93 -364 21 -19 56 -39 77 -45 24 -7
216 -11 538 -11 l500 0 -787 -787 c-830 -831 -828 -828 -828 -918 0 -42 29
-116 58 -149 26 -30 113 -66 157 -66 90 1 87 -2 918 828 l787 787 0 -500 c0
-322 4 -514 11 -538 6 -21 26 -56 45 -77 98 -108 272 -87 344 40 l25 45 3 770
c2 562 0 785 -8 824 -16 71 -83 142 -152 159 -53 14 -1539 16 -1595 2z"/>
</g>
</svg>
