<svg xmlns="http://www.w3.org/2000/svg" width="27.857" height="27.857" viewBox="0 0 27.857 27.857">
  <path id="Path_25268" data-name="Path 25268" d="M17.076-6.479a7.237,7.237,0,0,0,2.21-5.307,7.223,7.223,0,0,0-2.2-5.3,7.223,7.223,0,0,0-5.3-2.2,7.223,7.223,0,0,0-5.3,2.2,7.223,7.223,0,0,0-2.2,5.3,7.223,7.223,0,0,0,2.2,5.3,7.223,7.223,0,0,0,5.3,2.2A7.209,7.209,0,0,0,17.076-6.479ZM27.857,2.143a2.059,2.059,0,0,1-.636,1.507,2.059,2.059,0,0,1-1.507.636,1.989,1.989,0,0,1-1.507-.636L18.465-2.076A11.464,11.464,0,0,1,11.786,0,11.581,11.581,0,0,1,7.207-.929,11.784,11.784,0,0,1,3.44-3.44,11.784,11.784,0,0,1,.929-7.207,11.581,11.581,0,0,1,0-11.786a11.581,11.581,0,0,1,.929-4.579A11.784,11.784,0,0,1,3.44-20.131a11.784,11.784,0,0,1,3.767-2.511,11.581,11.581,0,0,1,4.579-.929,11.581,11.581,0,0,1,4.579.929,11.784,11.784,0,0,1,3.767,2.511,11.784,11.784,0,0,1,2.511,3.767,11.581,11.581,0,0,1,.929,4.579A11.464,11.464,0,0,1,21.5-5.106L27.238.636A2.051,2.051,0,0,1,27.857,2.143Z" transform="translate(0 23.572)" fill="#fff"/>
</svg>
