<svg id="Group_3505" data-name="Group 3505" xmlns="http://www.w3.org/2000/svg" xmlns:xlink="http://www.w3.org/1999/xlink" width="19.477" height="21.25" viewBox="0 0 19.477 21.25">
  <defs>
    <clipPath id="clip-path">
      <rect id="Rectangle_3966" data-name="Rectangle 3966" width="19.477" height="21.25" fill="#000"/>
    </clipPath>
  </defs>
  <g id="Group_3504" data-name="Group 3504" clip-path="url(#clip-path)">
    <path id="Path_1156" data-name="Path 1156" d="M16.306,0a8.94,8.94,0,0,1,.914.249,3.536,3.536,0,0,1-.775,6.8,3.466,3.466,0,0,1-2.925-.916c-.061-.055-.12-.114-.193-.183L6.93,9.592a3.625,3.625,0,0,1,0,2.063l6.4,3.649a3.519,3.519,0,0,1,2.693-1.135,3.412,3.412,0,0,1,2.233.869,3.541,3.541,0,0,1-3.419,6.039A3.58,3.58,0,0,1,12.48,16.86l-1.667-.951Q8.5,14.59,6.188,13.268a.247.247,0,0,0-.339.03,3.386,3.386,0,0,1-3.55.632A3.379,3.379,0,0,1,.035,11.078,3.5,3.5,0,0,1,1.883,7.5a3.526,3.526,0,0,1,3.97.45c.085.074.147.141.282.064Q9.3,6.2,12.476,4.391c-.025-.211-.063-.421-.072-.633A3.521,3.521,0,0,1,15.463.034a.539.539,0,0,0,.1-.034Z" transform="translate(0)" fill="#000"/>
  </g>
</svg>
