<svg xmlns="http://www.w3.org/2000/svg" width="237.844" height="19.047" viewBox="0 0 237.844 19.047">
  <g id="Group_63232" data-name="Group 63232" transform="translate(-5481.704 19642.352)">
    <path id="Path_1" data-name="Path 1" d="M39,11.539V24.008a3.266,3.266,0,0,0,3.247,3.281H57.838V24.9H42.247a.9.9,0,0,1-.9-.905V11.539a.9.9,0,0,1,.9-.905H57.838V8.25H42.247A3.278,3.278,0,0,0,39,11.539" transform="translate(5442.704 -19650.602)" fill="#fff"/>
    <path id="Path_2" data-name="Path 2" d="M72.015,8.256H56.424V27.3h2.36V20.16h7.064l5.97,7.135H75.27L69.3,20.16h2.722a3.266,3.266,0,0,0,3.247-3.281V11.547a3.28,3.28,0,0,0-3.255-3.291m.888,8.615a.9.9,0,0,1-.9.905H58.775V10.641h13.23a.9.9,0,0,1,.9.905Z" transform="translate(5448.826 -19650.6)" fill="#fff"/>
    <path id="Path_3" data-name="Path 3" d="M89.438,8.256H77.1a3.266,3.266,0,0,0-3.249,3.281V24.006A3.266,3.266,0,0,0,77.1,27.287H89.438a3.265,3.265,0,0,0,3.247-3.281V11.537a3.259,3.259,0,0,0-3.247-3.281m.9,15.75a.9.9,0,0,1-.9.905H77.1a.9.9,0,0,1-.9-.905V11.537a.9.9,0,0,1,.9-.905H89.438a.9.9,0,0,1,.9.905Z" transform="translate(5454.948 -19650.6)" fill="#fff"/>
    <path id="Path_4" data-name="Path 4" d="M219.9,16.87V11.537a3.266,3.266,0,0,0-3.249-3.281H201.061V27.3h2.36V20.159h7.064l5.969,7.137H219.9l-5.97-7.137h2.722A3.284,3.284,0,0,0,219.9,16.87m-16.487-6.23h13.23a.9.9,0,0,1,.9.905v5.334a.9.9,0,0,1-.9.905h-13.23Z" transform="translate(5499.648 -19650.6)" fill="#fff"/>
    <path id="Path_5" data-name="Path 5" d="M179.817,23.241l-4.58-14.985h-2.6l-4.6,15.011-4.6-15.011h-2.474l5.838,19.031h2.466l4.654-15.2,4.646,15.2h2.484L186.9,8.256H184.43Z" transform="translate(5485.561 -19650.6)" fill="#fff"/>
    <path id="Path_6" data-name="Path 6" d="M159.142,8.256H146.8a3.266,3.266,0,0,0-3.247,3.281V24.006a3.266,3.266,0,0,0,3.247,3.281h12.342a3.266,3.266,0,0,0,3.249-3.281V11.537a3.266,3.266,0,0,0-3.249-3.281m.888,15.75a.9.9,0,0,1-.9.905H146.792a.9.9,0,0,1-.9-.905V11.537a.9.9,0,0,1,.9-.905h12.342a.9.9,0,0,1,.9.905Z" transform="translate(5479.441 -19650.6)" fill="#fff"/>
    <path id="Path_7" data-name="Path 7" d="M126.123,10.64h8.239V27.288h2.359V10.64h8.239V8.256H126.123Z" transform="translate(5473.316 -19650.6)" fill="#fff"/>
    <path id="Path_8" data-name="Path 8" d="M106.862,8.256H94.52a3.267,3.267,0,0,0-3.249,3.281v4.137a3.266,3.266,0,0,0,3.249,3.281h12.342a.9.9,0,0,1,.9.907v4.145a.9.9,0,0,1-.9.905H94.52a.9.9,0,0,1-.9-.905V22.528H91.271v1.478a3.272,3.272,0,0,0,3.249,3.281h12.342a3.266,3.266,0,0,0,3.249-3.281V19.87a3.266,3.266,0,0,0-3.249-3.281H94.52a.9.9,0,0,1-.9-.905V11.545a.9.9,0,0,1,.9-.905h12.342a.9.9,0,0,1,.9.905v1.478h2.361V11.545a3.275,3.275,0,0,0-3.257-3.289" transform="translate(5461.07 -19650.6)" fill="#fff"/>
    <path id="Path_9" data-name="Path 9" d="M124.292,8.256H111.948a3.266,3.266,0,0,0-3.247,3.281v4.137A3.276,3.276,0,0,0,109.655,18a3.213,3.213,0,0,0,2.3.964h12.334a.9.9,0,0,1,.9.907v4.137a.9.9,0,0,1-.9.905H111.948a.9.9,0,0,1-.895-.905V22.528h-2.361v1.478a3.265,3.265,0,0,0,3.247,3.281h12.352a3.266,3.266,0,0,0,3.246-3.281V19.87a3.265,3.265,0,0,0-3.246-3.281H111.948a.88.88,0,0,1-.634-.266.9.9,0,0,1-.261-.639V11.545a.9.9,0,0,1,.895-.905h12.343a.9.9,0,0,1,.9.905v1.478h2.361V11.545a3.284,3.284,0,0,0-3.257-3.289" transform="translate(5467.192 -19650.6)" fill="#fff"/>
    <path id="Path_10" data-name="Path 10" d="M183.623,17.776v9.512h18.846V24.9H185.983V18.963H200.11V16.58H185.983V10.64h16.487V8.256H183.623Z" transform="translate(5493.521 -19650.6)" fill="#fff"/>
  </g>
</svg>
