<svg id="Component_2_10" data-name="Component 2 – 10" xmlns="http://www.w3.org/2000/svg" width="35" height="35" viewBox="0 0 35 35">
  <g id="Ellipse_263" data-name="Ellipse 263" fill="#fff" stroke="#565862" stroke-width="1">
    <circle cx="17.5" cy="17.5" r="17.5" stroke="none"/>
    <circle cx="17.5" cy="17.5" r="17" fill="none"/>
  </g>
  <path id="Path_25248" data-name="Path 25248" d="M52.413,12.03a1.3,1.3,0,0,0-1.155-.6h-9.18c-1.151,0-2.3,0-3.453,0a1.331,1.331,0,1,0,.022,2.662q2.387,0,4.775,0h3.272c1.521,0,3.042,0,4.564,0a1.32,1.32,0,0,0,1.278-.817,2.67,2.67,0,0,0,.108-.336v-.356a3.164,3.164,0,0,0-.231-.555" transform="translate(-27.458 5.16)" fill="#565862"/>
</svg>
