<svg id="Component_2_10" data-name="Component 2 – 10" xmlns="http://www.w3.org/2000/svg" width="35" height="35" viewBox="0 0 35 35">
  <g id="Ellipse_263" data-name="Ellipse 263" fill="#fff" stroke="#565862" stroke-width="1">
    <circle cx="17.5" cy="17.5" r="17.5" stroke="none"/>
    <circle cx="17.5" cy="17.5" r="17" fill="none"/>
  </g>
  <path id="Path_988" data-name="Path 988" d="M15.375,7.867a2.812,2.812,0,0,1-.108.341,1.319,1.319,0,0,1-1.278.828c-1.587,0-3.173,0-4.76,0h-.19v.191q0,2.387,0,4.774a1.35,1.35,0,1,1-2.7.007c0-1.591,0-3.183,0-4.774v-.2H6.152q-2.387,0-4.775,0a1.35,1.35,0,1,1-.022-2.7c1.151,0,2.3,0,3.454,0H6.336V1.491A1.356,1.356,0,0,1,7.481.015.1.1,0,0,0,7.507,0h.36a.113.113,0,0,0,.026.015A1.355,1.355,0,0,1,9.038,1.491V6.336h4.95a1.3,1.3,0,0,1,1.155.608,3.279,3.279,0,0,1,.231.563Z" transform="translate(9.813 10.236)" fill="#565862"/>
</svg>
