<svg xmlns="http://www.w3.org/2000/svg" xmlns:xlink="http://www.w3.org/1999/xlink" width="146" height="146" viewBox="0 0 146 146">
  <defs>
    <clipPath id="clip-path">
      <rect id="Rectangle_4223" data-name="Rectangle 4223" width="79.008" height="79.001" fill="#3c97f2"/>
    </clipPath>
  </defs>
  <g id="Group_63003" data-name="Group 63003" transform="translate(1531 13694)">
    <circle id="Ellipse_287" data-name="Ellipse 287" cx="73" cy="73" r="73" transform="translate(-1531 -13694)" fill="#3c97f2" opacity="0.085"/>
    <g id="Group_62993" data-name="Group 62993" transform="translate(-1498 -13660)">
      <g id="Group_62992" data-name="Group 62992" clip-path="url(#clip-path)">
        <path id="Path_25612" data-name="Path 25612" d="M0,52.089V12.6a5.929,5.929,0,0,0,.151-.607A13.992,13.992,0,0,1,13.862.027q18.472-.051,36.946,0A13.923,13.923,0,0,1,64.642,13.823q.083,18.509,0,37.018A13.889,13.889,0,0,1,50.9,64.639q-18.552.1-37.106,0A13.9,13.9,0,0,1,.618,54.709C.36,53.851.2,52.963,0,52.089M28.514,36.166c0,2.576-.013,5.04,0,7.5a3.82,3.82,0,1,0,7.637.014c.016-2.2,0-4.405,0-6.608V36.17h.96c2.257,0,4.513.029,6.769-.016a3.811,3.811,0,0,0-.036-7.619c-1.645-.034-3.292-.008-4.937-.008H36.159v-.861c0-2.2.009-4.405,0-6.608a3.824,3.824,0,1,0-7.64.029c-.011,2.1,0,4.193,0,6.29v1.15h-.952c-2.229,0-4.46-.016-6.689.005a3.813,3.813,0,0,0-.02,7.626c2.517.038,5.035.008,7.662.008" transform="translate(0 0)" fill="#3c97f2"/>
        <path id="Path_25613" data-name="Path 25613" d="M40.759,88.229c-.187-.085-.372-.178-.563-.255a3.813,3.813,0,0,1,1.324-7.383c1.911-.024,3.821-.006,5.731-.006q10.747,0,21.493,0A11.462,11.462,0,0,0,80.578,68.723q0-13.489,0-26.979a3.82,3.82,0,1,1,7.635-.183c.027,2.838.008,5.677.008,8.516,0,6.287.011,12.574,0,18.861A19.091,19.091,0,0,1,73.032,87.813c-.718.16-1.446.278-2.169.416Z" transform="translate(-9.222 -9.228)" fill="#162c5b"/>
        <path id="Path_25614" data-name="Path 25614" d="M34.042,41.693c-2.627,0-5.145.029-7.662-.008a3.813,3.813,0,0,1,.02-7.626c2.229-.021,4.46-.005,6.689-.005h.952V32.9c0-2.1-.008-4.193,0-6.29a3.824,3.824,0,1,1,7.64-.029c.012,2.2,0,4.405,0,6.608v.861h2.755c1.645,0,3.292-.026,4.937.008a3.811,3.811,0,0,1,.036,7.619c-2.255.045-4.512.014-6.769.016h-.96V42.6c0,2.2.012,4.405,0,6.608a3.82,3.82,0,1,1-7.637-.014c-.017-2.464,0-4.929,0-7.5" transform="translate(-5.528 -5.527)" fill="#fff"/>
      </g>
    </g>
  </g>
</svg>
