<svg id="Group_63000" data-name="Group 63000" xmlns="http://www.w3.org/2000/svg" xmlns:xlink="http://www.w3.org/1999/xlink" width="20.441" height="27.227" viewBox="0 0 20.441 27.227">
  <defs>
    <clipPath id="clip-path">
      <rect id="Rectangle_4090" data-name="Rectangle 4090" width="20.441" height="27.227" fill="none"/>
    </clipPath>
  </defs>
  <g id="Group_62866" data-name="Group 62866" clip-path="url(#clip-path)">
    <path id="Path_25251" data-name="Path 25251" d="M2.084,27.227H1.552a1.761,1.761,0,0,1-1.4-1.362,4.986,4.986,0,0,1-.143-1.207Q-.006,13.6.005,2.551A5.236,5.236,0,0,1,.12,1.445,1.712,1.712,0,0,1,2.174.023,4.114,4.114,0,0,1,3.932.8Q11.367,5.886,18.8,10.981a5.846,5.846,0,0,1,.725.58,2.715,2.715,0,0,1,.7,3.084,3.753,3.753,0,0,1-1.42,1.578q-7.25,4.96-14.5,9.926a5.84,5.84,0,0,1-2.225,1.077" transform="translate(0 0)" fill="#3c97f2"/>
  </g>
</svg>
