<svg id="Group_3615" data-name="Group 3615" xmlns="http://www.w3.org/2000/svg" xmlns:xlink="http://www.w3.org/1999/xlink" width="92.637" height="91.147" viewBox="0 0 92.637 91.147">
  <defs>
    <clipPath id="clip-path">
      <rect id="Rectangle_4000" data-name="Rectangle 4000" width="92.637" height="91.147" fill="#e2f0ff"/>
    </clipPath>
  </defs>
  <g id="Group_3610" data-name="Group 3610" clip-path="url(#clip-path)">
    <path id="Path_1230" data-name="Path 1230" d="M92.637,49.793v14.86c-.038.051-.1.1-.11.153a9.344,9.344,0,0,1-5.606,7.113,1.15,1.15,0,0,0-.44.887c-.033,2.894-.014,5.788-.021,8.682-.013,5.647-3.915,9.636-9.555,9.642q-33.67.033-67.34,0A9.2,9.2,0,0,1,0,81.494q-.01-24.263.005-48.526a29.134,29.134,0,0,0,.14-3.251,23.576,23.576,0,0,1,.556-8.135A27.714,27.714,0,0,1,46.386,7.233a1.3,1.3,0,0,0,1.6.295q6.6-2.689,13.228-5.3a9.243,9.243,0,0,1,12.9,8.737c.012,3.73,0,7.461,0,11.191V23.21c1.019,0,1.886-.006,2.753,0a9.292,9.292,0,0,1,9.6,9.631c.009,2.862.019,5.724-.012,8.586a1.1,1.1,0,0,0,.751,1.227,8.6,8.6,0,0,1,4.552,4.5,27.5,27.5,0,0,1,.887,2.634M6.275,45.344a1.53,1.53,0,0,0-.07.3q-.015,18.14-.017,36.28a3,3,0,0,0,2.151,2.89,5.161,5.161,0,0,0,1.429.145q33.483.01,66.966.006h.193A3.092,3.092,0,0,0,80.284,81.6c.009-2.7,0-5.4,0-8.105,0-.25-.029-.5-.051-.863H79.162c-2.67,0-5.34.045-8.009-.012A9.215,9.215,0,0,1,61.76,63q-.012-5.789,0-11.579a9.28,9.28,0,0,1,9.652-9.668c2.605-.014,5.211,0,7.816,0,.337,0,.674-.031,1.058-.049,0-2.938,0-5.765,0-8.591,0-2.556-1.159-3.723-3.7-3.724q-10.035,0-20.07,0h-.965c-1.466,12.381-7.617,21.155-19.54,24.874-11.639,3.631-21.544.056-29.734-8.915M49.4,27.767A21.611,21.611,0,1,0,27.358,49.4,21.641,21.641,0,0,0,49.4,27.767M67.935,57.223c0,1.993-.011,3.986,0,5.979a3.012,3.012,0,0,0,3.087,3.231q6.171.06,12.343,0a3.014,3.014,0,0,0,3.089-3.23q.021-5.979,0-11.957a3.08,3.08,0,0,0-3.235-3.3q-6.027-.045-12.054,0a3.083,3.083,0,0,0-3.231,3.307c-.012,1.993,0,3.986,0,5.979M51.221,12.87c.163.313.268.541.4.754A26.419,26.419,0,0,1,54.93,22.3c.139.738.4.927,1.109.921,3.664-.032,7.328-.014,10.992-.017.277,0,.554-.036.9-.06v-.817c0-3.76.008-7.52,0-11.281-.008-2.64-2.065-4.03-4.533-3.056-2.924,1.155-5.838,2.336-8.756,3.506L51.221,12.87" transform="translate(0 0)" fill="#3c97f2"/>
    <path id="Path_1231" data-name="Path 1231" d="M32.074,167.9c8.19,8.971,18.094,12.546,29.734,8.915,11.923-3.719,18.073-12.493,19.54-24.874h.965q10.035,0,20.07,0c2.543,0,3.7,1.168,3.7,3.723,0,2.827,0,5.654,0,8.592-.384.019-.721.048-1.057.049-2.605,0-5.211-.009-7.816,0a9.28,9.28,0,0,0-9.652,9.668q-.012,5.789,0,11.579a9.215,9.215,0,0,0,9.393,9.616c2.668.057,5.339.011,8.009.012h1.071c.022.362.05.612.051.863,0,2.7.009,5.4,0,8.105a3.092,3.092,0,0,1-3.357,3.366h-.193q-33.483,0-66.965-.006a5.162,5.162,0,0,1-1.43-.145,3,3,0,0,1-2.151-2.89q-.008-18.14.018-36.28a1.53,1.53,0,0,1,.07-.3" transform="translate(-25.799 -122.557)" fill="#e2f0ff"/>
    <path id="Path_1232" data-name="Path 1232" d="M75.168,53.538A21.611,21.611,0,1,1,53.754,31.95,21.6,21.6,0,0,1,75.168,53.538" transform="translate(-25.768 -25.771)" fill="#e2f0ff"/>
    <path id="Path_1233" data-name="Path 1233" d="M351.261,257.067c0-1.993-.009-3.986,0-5.979a3.083,3.083,0,0,1,3.231-3.307q6.027-.046,12.054,0a3.08,3.08,0,0,1,3.235,3.3q.018,5.979,0,11.958a3.014,3.014,0,0,1-3.088,3.23q-6.171.069-12.343,0a3.013,3.013,0,0,1-3.087-3.231c-.015-1.993,0-3.986,0-5.979" transform="translate(-283.327 -199.844)" fill="#e2f0ff"/>
    <path id="Path_1234" data-name="Path 1234" d="M264.853,44.907l3.422-1.371c2.918-1.17,5.832-2.351,8.756-3.506,2.467-.974,4.525.416,4.533,3.056.011,3.76,0,7.52,0,11.281v.817c-.349.024-.626.06-.9.06-3.664,0-7.328-.015-10.992.017-.709.006-.97-.183-1.109-.921a26.419,26.419,0,0,0-3.314-8.679c-.127-.214-.232-.441-.4-.754" transform="translate(-213.632 -32.037)" fill="#e2f0ff"/>
    <path id="Union_11" data-name="Union 11" d="M7125.32,28.241a4.715,4.715,0,1,1,.04,0Zm-8.567-12.371a2.316,2.316,0,0,1-.313-3.128,6.939,6.939,0,0,1,4.248-2.689c1.563-.364,3.173-.525,4.761-.776a15.2,15.2,0,0,1,6.149,1.368,10.09,10.09,0,0,1,2.585,1.988,2.228,2.228,0,0,1-.179,3.224,2.422,2.422,0,0,1-3.321-.1,5.406,5.406,0,0,0-1.774-1.124,10.177,10.177,0,0,0-7.1.063,7.349,7.349,0,0,0-1.844,1.16,2.646,2.646,0,0,1-1.66.619A2.277,2.277,0,0,1,7116.752,15.87Zm21.168-7.037a15.759,15.759,0,0,0-6.749-3.405c-5.863-1.378-11.509-.952-16.773,2.231a17.986,17.986,0,0,0-1.53,1.135,2.347,2.347,0,1,1-3.01-3.6,20.821,20.821,0,0,1,10-4.628,26.612,26.612,0,0,1,16.635,1.828,33.588,33.588,0,0,1,4.435,2.828,2.215,2.215,0,0,1,.919,1.947,2.231,2.231,0,0,1-1.325,2.009,2.461,2.461,0,0,1-1.08.266A2.31,2.31,0,0,1,7137.92,8.833Z" transform="translate(-7097.383 14.846)" fill="#3c97f2" stroke="rgba(0,0,0,0)" stroke-miterlimit="10" stroke-width="1"/>
  </g>
</svg>
